<svg xmlns="http://www.w3.org/2000/svg" enable-background="new 0 0 512 512" version="1" viewBox="0 0 512 512" id="expression"><circle cx="256" cy="256" r="221.959" fill="#FFD139"></circle><circle cx="162.493" cy="219.274" r="51.944" fill="#FFF"></circle><circle cx="162.493" cy="219.274" r="11.568" fill="#223A5E"></circle><circle cx="343.56" cy="219.274" r="51.944" fill="#FFF"></circle><circle cx="343.56" cy="219.274" r="11.568" fill="#223A5E"></circle><path fill="#ED4343" d="M317.583,382.802H194.417c-19.24,0-32.48-19.322-25.534-37.265l11.254-29.071
		c4.082-10.545,14.226-17.495,25.534-17.495h100.657c11.307,0,21.452,6.951,25.534,17.495l11.254,29.071
		C350.063,363.48,336.823,382.802,317.583,382.802z"></path><path fill="#AA2D2D" d="M343.56,364.086c-0.141-0.421-0.281-0.842-0.444-1.262l-0.389-1.005
		c-19.021-15.166-50.768-25.103-86.728-25.103c-35.96,0-67.707,9.937-86.728,25.103l-0.389,1.005
		c-0.163,0.42-0.303,0.841-0.444,1.262c3.567,10.597,13.508,18.716,25.978,18.716h123.166
		C330.053,382.802,339.993,374.683,343.56,364.086z"></path><path fill="#E0A232" d="M125.405 380.762c-1.326 0-2.674-.265-3.968-.826-5.068-2.194-7.398-8.082-5.204-13.15l31.083-71.789c2.194-5.068 8.083-7.398 13.15-5.204 5.068 2.194 7.398 8.082 5.204 13.15l-31.083 71.789C132.953 378.507 129.27 380.762 125.405 380.762zM386.484 380.762c-3.866 0-7.547-2.255-9.182-6.029l-31.083-71.789c-2.194-5.068.135-10.956 5.204-13.15 5.067-2.193 10.955.136 13.15 5.204l31.083 71.789c2.194 5.068-.135 10.956-5.204 13.15C389.158 380.497 387.81 380.762 386.484 380.762zM280.827 422.481h-45.981c-5.523 0-10-4.477-10-10s4.477-10 10-10h45.981c5.523 0 10 4.477 10 10S286.35 422.481 280.827 422.481z"></path></svg>