<svg xmlns="http://www.w3.org/2000/svg" enable-background="new 0 0 512 512" version="1" viewBox="0 0 512 512" id="happy"><circle cx="256" cy="256" r="221.959" fill="#FFD139"></circle><path fill="#223A5E" d="M213.368 208.493c-5.523 0-10-4.478-10-10 0-15.29-12.439-27.729-27.729-27.729s-27.729 12.438-27.729 27.729c0 5.522-4.477 10-10 10s-10-4.478-10-10c0-26.317 21.411-47.729 47.729-47.729s47.729 21.411 47.729 47.729C223.368 204.015 218.89 208.493 213.368 208.493zM374.091 208.493c-5.523 0-10-4.478-10-10 0-15.29-12.439-27.729-27.729-27.729s-27.729 12.438-27.729 27.729c0 5.522-4.477 10-10 10s-10-4.478-10-10c0-26.317 21.411-47.729 47.729-47.729s47.729 21.411 47.729 47.729C384.091 204.015 379.614 208.493 374.091 208.493zM256 335.405c-29.472 0-58.4-7.869-83.657-22.757-24.508-14.446-44.991-35.097-59.234-59.718-2.766-4.781-1.132-10.898 3.648-13.664 4.779-2.765 10.897-1.132 13.663 3.648 25.867 44.714 73.985 72.49 125.579 72.49 53.836 0 102.954-29.579 128.185-77.194 2.585-4.878 8.637-6.739 13.518-4.153 4.88 2.586 6.74 8.638 4.154 13.519C373.15 301.75 317.261 335.405 256 335.405z"></path></svg>