<svg xmlns="http://www.w3.org/2000/svg" enable-background="new 0 0 512 512" version="1" viewBox="0 0 512 512" id="expression"><circle cx="260" cy="256" r="221.959" fill="#FFD139"></circle><path fill="#ED4343" d="M170.412 256l-57.102-57.101c-13.549-13.549-13.549-35.516 0-49.065 13.549-13.549 35.516-13.549 49.065 0l8.037 8.037 8.037-8.037c13.549-13.549 35.516-13.549 49.065 0 13.549 13.549 13.549 35.516 0 49.064L170.412 256zM349.588 256l-57.102-57.101c-13.549-13.549-13.549-35.516 0-49.065 13.549-13.549 35.516-13.549 49.065 0l8.037 8.037 8.037-8.037c13.549-13.549 35.516-13.549 49.064 0 13.549 13.549 13.549 35.516 0 49.064L349.588 256z"></path><path fill="#223A5E" d="M260,344.941c-59.47,0-111.257-31.542-138.177-78.135c-2.842-4.919-10.416-2.916-10.424,2.764
		c0,0.072,0,0.144,0,0.217c0,83.634,66.531,151.434,148.602,151.434s148.602-67.799,148.602-151.434c0-0.072,0-0.145,0-0.217
		c-0.008-5.68-7.582-7.683-10.424-2.764C371.257,313.399,319.471,344.941,260,344.941z"></path></svg>