<svg xmlns="http://www.w3.org/2000/svg" enable-background="new 0 0 512 512" version="1" viewBox="0 0 512 512" id="worried-expression"><circle cx="256" cy="256" r="221.959" fill="#FFD139"></circle><circle cx="162.493" cy="219.274" r="37.748" fill="#223A5E"></circle><circle cx="349.507" cy="219.274" r="37.748" fill="#223A5E"></circle><path fill="#223A5E" d="M328.507,375.431l-8.056-2.117c-42.354-11.129-86.547-11.129-128.901,0l-8.056,2.117
		c-23.462,6.165-46.059-13.104-46.059-39.276v0c0-26.172,22.597-45.441,46.059-39.276l8.056,2.117
		c42.354,11.129,86.547,11.129,128.901,0l8.056-2.117c23.462-6.165,46.059,13.104,46.059,39.276v0
		C374.565,362.327,351.969,381.596,328.507,375.431z"></path><path fill="#E0A232" d="M124.74,386.587c-2.308,0-4.626-0.794-6.514-2.417c-29.419-25.289-23.1-58.464-15.647-72.473
		c2.592-4.876,8.648-6.727,13.524-4.132c4.859,2.585,6.713,8.607,4.159,13.474c-0.129,0.254-3.615,7.246-3.897,16.598
		c-0.361,12.004,4.651,22.558,14.898,31.366c4.188,3.601,4.665,9.914,1.064,14.102C130.35,385.406,127.553,386.587,124.74,386.587z"></path><path fill="#223A5E" d="M164.75 176.026c-25.101 0-42.961-8.118-44.239-8.715-5.004-2.339-7.163-8.291-4.824-13.294 2.333-4.993 8.263-7.153 13.264-4.838 1.86.854 45.481 20.266 89.688-10.26 4.546-3.137 10.773-1.998 13.911 2.547 3.139 4.544 1.998 10.773-2.546 13.911C206.811 171.39 183.713 176.026 164.75 176.026zM354.56 176.026c-18.965 0-42.058-4.634-65.253-20.65-4.544-3.138-5.685-9.367-2.546-13.911 3.139-4.545 9.365-5.683 13.911-2.547 44.219 30.535 87.854 11.101 89.689 10.26 5.008-2.297 10.946-.12 13.261 4.879 2.315 4.999.168 10.921-4.823 13.254C397.521 167.908 379.657 176.026 354.56 176.026z"></path></svg>