<svg xmlns="http://www.w3.org/2000/svg" data-name="Layer 1" viewBox="0 0 175 175" id="businesswoman-complete-task-one-by-one"><rect width="115.37" height="1.15" x="32.55" y="133.14" fill="#16162b"></rect><path fill="#fff" d="M87.61,132.86c.48-17.55,2.56-29.27,7.89-44.62.33-.92.6-1.8.86-2.62,2-6.27,3-9.41,16.53-9.41,14.82,0,19.83,4.43,22.53,8.28,7.9,11.26,7.24,30.93,6.84,42.68-.07,2.18-.13,4.09-.14,5.69Z"></path><path d="M112.89,76.61c14.64,0,19.56,4.33,22.2,8.11,7.82,11.14,7.17,30.74,6.77,42.44-.06,2-.12,3.78-.14,5.3H88c.5-17.28,2.58-28.9,7.86-44.09.32-.93.6-1.79.86-2.63,2-6.27,2.88-9.13,16.15-9.13Zm0-.8c-15.65,0-15,4.28-17.76,12.3-5.57,16-7.48,27.8-7.93,45.14h55.32c0-10.2,2.75-35.41-6.77-49-3.46-4.92-9.43-8.45-22.86-8.45Z"></path><path d="M112.89,75.54c-14,0-15.16,3.51-17.16,9.88-.26.82-.53,1.69-.86,2.61-5.4,15.53-7.48,27.36-7.94,45.22v.27h55.86v-.27c0-1.65.07-3.69.15-6,.39-11.84,1.06-31.65-7-43.09C131.81,78.19,124.69,75.54,112.89,75.54Zm29.5,51.64c-.07,2.24-.14,4.19-.14,5.81H87.48C88,115.35,90,103.6,95.38,88.2c.32-.92.6-1.8.86-2.62,2-6.33,3-9.5,16.65-9.5,11.61,0,18.59,2.57,22.64,8.34C143.45,95.71,142.79,115.41,142.39,127.18Z"></path><path fill="#066eb7" d="M117.33 76a6.31 6.31 0 01-.84 5.13c-2.8 4-3.08 8-3.19 12.77-.13 5.85-2 11.26-1.74 17.11.39 8.25 1.52 10.12 1.52 22.23h29.44c0-10.2 2.75-35.41-6.77-49C132.7 79.92 128 76.94 117.33 76zM92.22 88.84c-5.57 16-5.94 26.93-5 44.41h8.7c0-37.52 8.64-57.34 8.64-57.34l-2.75 1.37C97.3 79.17 94.06 83.55 92.22 88.84z"></path><path d="M103.23,66.45A11,11,0,0,1,96.63,76C90,78.94,91.52,86.67,95,86.67c0,0-.07,4.12,3,4.12s2.37-14.51,8.19-14.51c2.31,0,.4-9.48.4-9.48Z"></path><path d="M106.66,66.54l-3.4-.36a.27.27,0,0,0-.21.07.25.25,0,0,0-.09.2,10.81,10.81,0,0,1-6.44,9.33c-4,1.76-5.19,5.29-4.62,8,.38,1.8,1.48,3,2.84,3.15a5.27,5.27,0,0,0,1.2,3.28,2.85,2.85,0,0,0,2.11.85c1.53,0,2.15-2.56,2.93-5.79,1-4.09,2.11-8.72,5.26-8.72a1,1,0,0,0,.81-.4c1.37-1.66,0-8.61-.15-9.4A.28.28,0,0,0,106.66,66.54Zm0,9.27a.49.49,0,0,1-.4.21c-3.57,0-4.79,5.06-5.78,9.12-.67,2.77-1.3,5.38-2.41,5.38a2.35,2.35,0,0,1-1.73-.68,5.1,5.1,0,0,1-1-3.16.28.28,0,0,0-.08-.2A.27.27,0,0,0,95,86.4c-1.22,0-2.22-1.07-2.58-2.73-.52-2.5.61-5.76,4.32-7.4a11.33,11.33,0,0,0,6.74-9.53l2.93.31C106.84,69.26,107.63,74.61,106.64,75.81Z"></path><path fill="#fff" d="M116.61,56.35s.63-8.1-3.36-10.57S99.43,46.39,99,52.06a29.14,29.14,0,0,1-1,6.83c-.91,3.51,1.07,12.3,9,12.3a13.23,13.23,0,0,1-1.14,5.27s-2,4.92,2.41,4.92a13.61,13.61,0,0,0,10.59-5.48s-1.75-3.14-1.75-11.52a5.66,5.66,0,0,0,3-4.29C120.36,57.83,118.89,56.35,116.61,56.35Z"></path><path d="M116.89,56.09c.08-1.48.2-8.24-3.5-10.53a7.16,7.16,0,0,0-3.76-.91c-4.9,0-10.56,3-10.86,7.39l0,.67a27.28,27.28,0,0,1-1,6.11A12.07,12.07,0,0,0,100,68.09a8.49,8.49,0,0,0,6.71,3.36,12.37,12.37,0,0,1-1.11,4.91c0,.1-1,2.61,0,4.15a3,3,0,0,0,2.66,1.14c6.92,0,10.77-5.54,10.81-5.6a.26.26,0,0,0,0-.28s-1.69-3.16-1.71-11.22a5.87,5.87,0,0,0,3-4.43,3.57,3.57,0,0,0-.79-2.86A3.78,3.78,0,0,0,116.89,56.09Zm2.94,4A5.45,5.45,0,0,1,117,64.14a.27.27,0,0,0-.16.24c0,7.44,1.36,10.77,1.71,11.5a13.39,13.39,0,0,1-10.28,5.23,2.47,2.47,0,0,1-2.21-.9c-.88-1.3,0-3.63,0-3.63a13.09,13.09,0,0,0,1.17-5.39.27.27,0,0,0-.26-.27,7.93,7.93,0,0,1-6.57-3.15A11.54,11.54,0,0,1,98.25,59a28,28,0,0,0,1-6.2l0-.67c.3-4.27,6.21-6.89,10.33-6.89a6.61,6.61,0,0,1,3.48.82c3.81,2.35,3.24,10.24,3.23,10.32a.31.31,0,0,0,.07.21.28.28,0,0,0,.2.08,3.35,3.35,0,0,1,2.56,1A3.07,3.07,0,0,1,119.83,60.06Z"></path><path d="M107 52.4a.25.25 0 00-.31.2.27.27 0 00.2.32 6.06 6.06 0 013.54 2.64.28.28 0 00.23.13.23.23 0 00.14 0 .26.26 0 00.09-.37A6.49 6.49 0 00107 52.4zM103.07 54.14a6.84 6.84 0 01-3.35.84.29.29 0 00-.28.26.27.27 0 00.26.27h.23a7.37 7.37 0 003.42-.92.26.26 0 00.09-.37A.27.27 0 00103.07 54.14zM102.43 60.06h0a1.26 1.26 0 00-.94.62.26.26 0 00.1.36.28.28 0 00.37-.1.72.72 0 01.49-.34h0c.26 0 .58.26.9.74a.25.25 0 00.22.12.28.28 0 00.15 0 .26.26 0 00.07-.37C103.34 60.4 102.89 60.06 102.43 60.06zM108.82 56.28a.62.62 0 10-.66 1 .65.65 0 00.92-.14A.67.67 0 00108.82 56.28z"></path><path d="M109 56.05a1 1 0 00-1.29.23.93.93 0 00.35 1.26 1.1 1.1 0 00.55.16.83.83 0 00.73-.39A.93.93 0 00109 56.05zm-.11 1a.45.45 0 01-.73-.47.33.33 0 01.29-.14.43.43 0 01.26.09A.39.39 0 01108.85 57zM101.12 56.28a.62.62 0 10-.66 1 .65.65 0 00.92-.14A.67.67 0 00101.12 56.28z"></path><path d="M101.26 56.05a1 1 0 00-1.29.23.83.83 0 00-.09.69 1.07 1.07 0 00.44.57 1.1 1.1 0 00.55.16.86.86 0 00.74-.39A.94.94 0 00101.26 56.05zm-.11 1a.39.39 0 01-.54 0 .44.44 0 01-.21-.26.29.29 0 010-.26.3.3 0 01.28-.14.48.48 0 01.27.09A.39.39 0 01101.15 57zM107.84 63s-1.78 1.9-3 .88a.26.26 0 00-.38 0 .27.27 0 000 .37 1.87 1.87 0 001.19.44 4.23 4.23 0 002.57-1.37.27.27 0 00-.39-.36zM111.67 68.45A6.7 6.7 0 01107 70.92a.27.27 0 000 .54h0a7.18 7.18 0 005.13-2.68.27.27 0 000-.37A.26.26 0 00111.67 68.45zM116.73 57.69a.28.28 0 00-.2.33.27.27 0 00.33.19 1.65 1.65 0 011.25.23 1.73 1.73 0 01.52 1.44.27.27 0 00.53 0 2.24 2.24 0 00-.72-1.87A2.21 2.21 0 00116.73 57.69z"></path><path d="M118.76,59.21h0a2.1,2.1,0,0,0-2.19,1.32.26.26,0,0,0,.17.33h.08a.28.28,0,0,0,.26-.18,1.61,1.61,0,0,1,1.68-.94h0a.27.27,0,0,0,.26-.27A.25.25,0,0,0,118.76,59.21Z"></path><path d="M139.66,75.29c-7.25-2.41-8-4.94-9.91-10.63-1.62-4.78-3.54-19.49-10.15-19.49,0,0-1.61-4.19-7.57-4.19-8.78,0-16.58,6.35-13.36,14.25,0,0,4.32-8.47,12.79-8.47,0,0-.78,12,4.7,9.74,2.93-1.19,5,2.25,3.73,5-.45,1-1.73,2.91-2.82,2.91-2.38,0,1.44,5.57-7.24,14-7,6.77-.29,10.53-.29,10.53s.36,3.91,4.12,3.91c5.2,0,3.57-16.44,7.52-16.44s8,1.77,11.44,4.48c3.9,3,7.32,10.57,7.32,10.57s7.13-4.89,3.51-9.88C143.45,81.58,146.91,77.71,139.66,75.29Z"></path><path d="M144.44,78.68c-.4-1.51-2-2.74-4.7-3.64-7-2.33-7.81-4.77-9.62-10.13l-.12-.34c-.32-1-.67-2.36-1.06-4-1.53-6.18-3.83-15.5-9.16-15.7-.39-.8-2.37-4.19-7.75-4.19s-10.38,2.35-12.82,6a8.88,8.88,0,0,0-.79,8.65.27.27,0,0,0,.24.16.23.23,0,0,0,.24-.14c0-.08,4.25-8.13,12.28-8.32-.06,1.36-.19,7,1.82,9.17a2.74,2.74,0,0,0,3.26.55,2.51,2.51,0,0,1,3.18,1,3.85,3.85,0,0,1,.21,3.6c-.52,1.13-1.74,2.76-2.58,2.76-1.09,0-1.17.93-1.29,2.22-.21,2.27-.6,6.49-6.13,11.87-2.41,2.35-3.49,4.6-3.21,6.71a6.22,6.22,0,0,0,2.86,4.19c.11.72.82,4,4.36,4,3,0,3.83-4.72,4.64-9.28.62-3.52,1.26-7.16,2.88-7.16,3.61,0,7.62,1.57,11.27,4.43,3.81,3,7.22,10.39,7.25,10.47a.26.26,0,0,0,.17.14.24.24,0,0,0,.22,0c.17-.11,4-2.76,4.57-6.23a5.09,5.09,0,0,0-.88-3.86A3.51,3.51,0,0,0,144.44,78.68Zm-.3,6.68c-.48,2.75-3.23,5-4.09,5.69-.69-1.45-3.75-7.63-7.27-10.38-3.75-2.92-7.87-4.53-11.6-4.53-2.06,0-2.69,3.52-3.4,7.59s-1.57,8.85-4.12,8.85c-3.47,0-3.84-3.51-3.85-3.66a.28.28,0,0,0-.13-.21A5.76,5.76,0,0,1,107,84.85c-.25-1.93.77-4,3-6.25,5.67-5.53,6.07-9.88,6.29-12.21.13-1.41.22-1.74.76-1.74,1.34,0,2.69-2.27,3.06-3.06a4.33,4.33,0,0,0-.25-4.12A3,3,0,0,0,117.34,56a3.31,3.31,0,0,0-1.28.27,2.19,2.19,0,0,1-2.66-.43c-2.09-2.22-1.68-9-1.67-9a.24.24,0,0,0-.08-.2.23.23,0,0,0-.19-.09c-7.31,0-11.63,6.27-12.74,8.11A8.28,8.28,0,0,1,99.65,47c2.34-3.48,7.2-5.73,12.38-5.73,5.69,0,7.26,3.85,7.32,4a.27.27,0,0,0,.25.18c5,0,7.31,9.2,8.82,15.29.4,1.62.74,3,1.08,4l.11.33c1.88,5.53,2.73,8.06,10,10.47,2.53.84,4,1.94,4.34,3.26a3.11,3.11,0,0,1-.67,2.59.25.25,0,0,0,0,.33A4.66,4.66,0,0,1,144.14,85.36Z"></path><path fill="#fff" d="M103.85,124.37c-1.4-.92-4.25,1.06-6.7.19s-2.7,2.85,2.3,3.09S105,125.12,103.85,124.37Z"></path><path d="M104,124.15c-.68-.45-1.8-.27-3,0a10.79,10.79,0,0,1-2.39.36,4,4,0,0,1-1.33-.21c-1.11-.4-2,.1-2.06,1s1.09,2.46,4.25,2.61H100c3.6,0,4.36-1.61,4.51-2.1A1.46,1.46,0,0,0,104,124.15Zm0,1.53c-.27.89-1.61,1.84-4.58,1.7-2.76-.13-3.76-1.33-3.74-2.06,0-.39.29-.63.73-.63a1.78,1.78,0,0,1,.61.12,4.27,4.27,0,0,0,1.51.24,11.86,11.86,0,0,0,2.51-.37c1.11-.25,2.11-.43,2.62-.09A.94.94,0,0,1,104,125.68Z"></path><path fill="#fff" d="M125.47,104.4s5,9.5,3.58,10.11c-6.49,2.85-11.76,9.26-14,10.55-3.86,2.18-10.87-3.26-13.86-.13s-6.56,6.63-6.56,6.63,11,1.13,12.55-.72c1.29-1.61,1.09.85,6.73.85,1.77,0,1.8.41,4.73-.8,4.65-1.93,21.36-4.48,25.42-13,1.86-3.89-2.44-17.15-2.44-17.15S131.7,99.89,125.47,104.4Z"></path><path d="M141.62,100.48s-.78-.07-2-.07c-3.4,0-9.78.49-14.31,3.78a.27.27,0,0,0-.08.34c1.66,3.16,4.15,8.57,3.77,9.66,0,0,0,.07-.05.08-4.35,1.91-8.12,5.36-10.87,7.88a22.56,22.56,0,0,1-3.19,2.67,4.24,4.24,0,0,1-2.16.5,18.26,18.26,0,0,1-4.5-.84,18.31,18.31,0,0,0-4.39-.82,3.75,3.75,0,0,0-2.86,1.08c-3,3.08-6.52,6.6-6.56,6.63a.26.26,0,0,0-.06.28.26.26,0,0,0,.22.18s3.39.34,6.62.34c3.52,0,5.53-.38,6.16-1.16.32-.4.48-.45.59-.45a1.79,1.79,0,0,1,.68.27,10.21,10.21,0,0,0,5.26,1.13c.39,0,.69,0,1,0l.63,0a8.16,8.16,0,0,0,3.24-.89,46.72,46.72,0,0,1,4.66-1.44c7.05-2,17.7-5,20.9-11.68,1.88-3.94-2.25-16.8-2.43-17.35A.26.26,0,0,0,141.62,100.48Zm2.18,17.3c-3.1,6.49-13.61,9.44-20.56,11.39-2,.55-3.66,1-4.73,1.47a7.87,7.87,0,0,1-3,.85l-.6,0c-.28,0-.59,0-1,0a9.7,9.7,0,0,1-5-1.08c-.8-.41-1.24-.52-1.92.32-.29.36-1.42,1-5.75,1-2.42,0-4.91-.2-6-.29,1-1,3.78-3.76,6.15-6.24a3.26,3.26,0,0,1,2.48-.91,17.58,17.58,0,0,1,4.25.8,19,19,0,0,0,4.64.85,4.79,4.79,0,0,0,2.42-.56,22.84,22.84,0,0,0,3.29-2.74c2.72-2.5,6.45-5.92,10.72-7.79a.64.64,0,0,0,.34-.4c.55-1.56-2.91-8.39-3.69-9.87,4.4-3.08,10.53-3.54,13.81-3.54.86,0,1.49,0,1.78,0C141.89,102.56,145.48,114.27,143.8,117.78Z"></path><path d="M101.56 127.16l-4.28 4.28a.26.26 0 000 .38.27.27 0 00.19.08.31.31 0 00.19-.08l4.28-4.28a.27.27 0 000-.38A.25.25 0 00101.56 127.16zM104 127.47a31.76 31.76 0 00-4 4 .26.26 0 000 .38.27.27 0 00.17.06.25.25 0 00.2-.1 31.08 31.08 0 013.88-3.94.28.28 0 000-.38A.26.26 0 00104 127.47zM106.2 128.85c-1 .09-3.76 2.54-4.06 2.81a.27.27 0 000 .38.25.25 0 00.2.09.31.31 0 00.18-.07c1.1-1 3.09-2.62 3.74-2.68a.27.27 0 00.25-.28A.29.29 0 00106.2 128.85z"></path><path fill="#066eb7" d="M131.72,81.06l-8.94,20.69,1.92,6.34s8.25,1.18,18.67-6.28C143.37,101.81,138.74,84.91,131.72,81.06Z"></path><path d="M131.85 80.83a.27.27 0 10-.26.47c6.45 3.54 10.95 18.58 11.47 20.4-9.32 6.62-16.94 6.25-18.16 6.14L123 101.67a.25.25 0 00-.33-.17.27.27 0 00-.18.33l1.93 6.34a.25.25 0 00.21.18 8.71 8.71 0 001.32.07c2.76 0 9.57-.68 17.54-6.4a.27.27 0 00.1-.29C143.44 101 138.88 84.69 131.85 80.83zM75.86 133.2h35.49a1.52 1.52 0 001.52-1.52h-37z"></path><path d="M112.87,131.41h-37a.27.27,0,0,0-.26.27v1.52a.26.26,0,0,0,.26.26h35.49a1.79,1.79,0,0,0,1.79-1.78A.27.27,0,0,0,112.87,131.41Zm-1.52,1.52H76.13v-1h36.44A1.24,1.24,0,0,1,111.35,132.93Z"></path><path fill="#94c0e7" d="M76.36,100.39a1.78,1.78,0,0,0-1.7-1.25H29.13a1.78,1.78,0,0,0-1.7,2.29l9.29,30.51a1.77,1.77,0,0,0,1.7,1.26H84a1.78,1.78,0,0,0,1.7-2.29Z"></path><path d="M76.62,100.31a2,2,0,0,0-2-1.44H29.13a2,2,0,0,0-1.95,2.63L36.46,132a2,2,0,0,0,2,1.44H84a2,2,0,0,0,2-2.63Zm8.54,32a1.49,1.49,0,0,1-1.21.61H38.42A1.51,1.51,0,0,1,37,131.86l-9.28-30.51a1.51,1.51,0,0,1,1.44-1.95H74.66a1.51,1.51,0,0,1,1.45,1.07L85.39,131A1.5,1.5,0,0,1,85.16,132.32Z"></path><rect width="16.98" height="16.98" x="30.89" y="68.83" fill="#0aaaa0" rx="2"></rect><path d="M45.87,86.06h-13a2.25,2.25,0,0,1-2.25-2.25v-13a2.25,2.25,0,0,1,2.25-2.25h13a2.25,2.25,0,0,1,2.25,2.25v13A2.25,2.25,0,0,1,45.87,86.06Zm-13-17a1.75,1.75,0,0,0-1.75,1.75v13a1.76,1.76,0,0,0,1.75,1.75h13a1.76,1.76,0,0,0,1.75-1.75v-13a1.75,1.75,0,0,0-1.75-1.75Z"></path><path fill="#fff" d="M38.32,78.85,35.6,76.13l-1.79,1.79,3.62,3.63a1.27,1.27,0,0,0,1.79,0l6.31-6.31-1.79-1.8Z"></path><path d="M38.33,82.17a1.51,1.51,0,0,1-1.08-.45l-3.8-3.8,2.15-2.15,2.73,2.73,5.41-5.41,2.15,2.15L39.4,81.72A1.51,1.51,0,0,1,38.33,82.17Zm-4.17-4.25,3.45,3.45a1.05,1.05,0,0,0,1.44,0l6.13-6.13-1.44-1.45-5.41,5.42L35.6,76.48Z"></path><rect width="17.35" height="1.71" x="52.08" y="73.4" fill="#090b08"></rect><rect width="11.31" height="1.71" x="71.12" y="73.4" fill="#090b08"></rect><rect width="11.1" height="1.71" x="52.08" y="79.53" fill="#090b08"></rect><rect width="7.88" height="1.71" x="65.18" y="79.53" fill="#090b08"></rect><rect width="16.98" height="16.98" x="30.89" y="44.72" fill="#0aaaa0" rx="2"></rect><path d="M45.87,62h-13a2.26,2.26,0,0,1-2.25-2.26v-13a2.25,2.25,0,0,1,2.25-2.25h13a2.25,2.25,0,0,1,2.25,2.25v13A2.26,2.26,0,0,1,45.87,62Zm-13-17a1.75,1.75,0,0,0-1.75,1.75v13a1.76,1.76,0,0,0,1.75,1.76h13a1.76,1.76,0,0,0,1.75-1.76v-13A1.75,1.75,0,0,0,45.87,45Z"></path><path fill="#fff" d="M38.32,54.74,35.6,52l-1.79,1.79,3.62,3.63a1.27,1.27,0,0,0,1.79,0l6.31-6.32-1.79-1.79Z"></path><path d="M38.33,58.06a1.51,1.51,0,0,1-1.08-.45l-3.8-3.8,2.15-2.15,2.73,2.73L43.74,49l2.15,2.14L39.4,57.61A1.51,1.51,0,0,1,38.33,58.06Zm-4.17-4.25,3.45,3.45a1.05,1.05,0,0,0,1.44,0l6.13-6.14-1.44-1.44L38.33,55.1,35.6,52.37Z"></path><rect width="17.35" height="1.71" x="52.08" y="49.29" fill="#090b08"></rect><rect width="11.31" height="1.71" x="71.12" y="49.29" fill="#090b08"></rect><rect width="11.1" height="1.71" x="52.08" y="55.41" fill="#090b08"></rect><rect width="7.88" height="1.71" x="65.18" y="55.41" fill="#090b08"></rect></svg>