<svg xmlns="http://www.w3.org/2000/svg" data-name="Layer 1" viewBox="0 0 200 200" id="happy-girl-completed-her-work"><path fill="#fff" d="M110.72,168.05c1.93-2.28,15.18-18,23.28-28.18A46.58,46.58,0,0,0,140.75,129c1.54-3.3,3-6.41,8.69-12.88,9.8-11.14,19.47-24,20.8-25.8h0l.17-.24a3.47,3.47,0,0,1,.78-.87c4.51-3.71,6.44-6,5.23-8.85l-.22-.51-.34.43a2.28,2.28,0,0,1-1.42.84l-.26,0-.21.23c-.35.87-1.17,2.25-1.89,2.25a.74.74,0,0,1-.49-.22c-.86-.77.64-3.77,1.79-5.47.18-.63.39-1.42.46-1.58A5.79,5.79,0,0,1,176,74.5c1.29-.69,3.63-1.69,3.65-1.7l1.57-.67-1.71,0a3.68,3.68,0,0,1-2.16-.46.45.45,0,0,1-.07-.49,2,2,0,0,1,1.61-1.06,7.33,7.33,0,0,0,1.49-.44,4.2,4.2,0,0,1,1.56-.37,3.69,3.69,0,0,1,1.08.18,18.69,18.69,0,0,1,3.1,1.39c.54.28,1,.54,1.49.72s.77,1.91,1.05,4c.19,1.46.42,3.27.84,5.26.59,2.8-.65,3.68-2.7,5.14a17.5,17.5,0,0,0-5.08,5c-.64,1-1.23,2-1.79,2.91l-.18.31h0c-1.3,2.27-9.41,16.37-16.34,29.58-4.22,8.05-6,10.14-8,12.56a60.67,60.67,0,0,0-6.66,9.39c-6.77,11.2-18.07,32.1-19.61,35Z"></path><path d="M181.9,69.67a3.06,3.06,0,0,1,1,.17,18.85,18.85,0,0,1,3.05,1.36c.53.28,1,.55,1.51.74s.65,2.25.85,3.77.43,3.29.85,5.29c.54,2.59-.56,3.37-2.57,4.8a17.85,17.85,0,0,0-5.17,5.09c-.56.88-1.15,1.83-1.79,2.92l-.37.66h0c-1.78,3.07-9.51,16.57-16.16,29.26-4.21,8-6,10.09-8,12.5a60.84,60.84,0,0,0-6.69,9.43c-6.56,10.85-17.37,30.8-19.45,34.65L111.21,168c2.58-3.06,15.22-18.06,23-27.91a47.22,47.22,0,0,0,6.79-10.92c1.53-3.27,3-6.37,8.64-12.81,9.49-10.78,18.85-23.2,20.66-25.61l.07,0,.3-.49a2.91,2.91,0,0,1,.69-.78c4.65-3.82,6.63-6.18,5.33-9.24l-.43-1-.69.85a2,2,0,0,1-1.16.72h-.07l-.52-.08-.19.48c-.39,1-1.13,2-1.58,2a.5.5,0,0,1-.27-.14c-.55-.49.52-3.07,1.85-5l.07-.1,0-.11c.14-.56.33-1.26.39-1.4a5.51,5.51,0,0,1,2-1.68c1.28-.68,3.61-1.68,3.63-1.69l2.91-1.26h-3.23a3.56,3.56,0,0,1-1.87-.36s0-.12,0-.17a1.7,1.7,0,0,1,1.35-.84,6.68,6.68,0,0,0,1.55-.45,4,4,0,0,1,1.45-.35Zm0-.66c-1.14,0-1.86.61-3.1.81-1.62.27-2.29,1.5-1.73,2.11s2,.56,2.35.56h.06s-2.36,1-3.68,1.71a6.06,6.06,0,0,0-2.23,2,15.64,15.64,0,0,0-.44,1.53s-3.14,4.66-1.74,5.91a1.09,1.09,0,0,0,.71.3c1.21,0,2.19-2.45,2.19-2.45h.17a2.63,2.63,0,0,0,1.67-1c1.12,2.63-.58,4.73-5.13,8.48a3.49,3.49,0,0,0-.85,1h0s-10.33,13.93-20.93,26-6.65,12.66-15.46,23.75-23.5,28.44-23.5,28.44l18.93,13.17S141.63,158.12,149,146s7.12-7.46,14.73-22,16.51-29.88,16.51-29.88h0c.55-.94,1.14-1.92,1.78-2.9,3.87-6,8.92-5.17,7.82-10.38s-.9-9.06-2.09-9.54a43.47,43.47,0,0,0-4.61-2.12,4,4,0,0,0-1.18-.2Z"></path><path fill="#0f1c2f" d="M185.47 74l.06-.28-.28-.08a8.33 8.33 0 01-3-1.89l-.12-.11-.16 0s-1.93.45-2.73.58a.32.32 0 00-.26.36.31.31 0 00.36.25c.69-.12 2.14-.44 2.62-.55a9.46 9.46 0 002.88 1.82 3.6 3.6 0 00.27 2.37.29.29 0 00.42.1.3.3 0 00.11-.42A3.26 3.26 0 01185.47 74zM179.46 78.19c-.82-.85-2.54-2.16-3.56-2.07A9.9 9.9 0 00173 77.45a.31.31 0 10.32.52A9.75 9.75 0 01176 76.73c.68-.07 2.14.93 3.06 1.89a15.44 15.44 0 011.9 2.56.31.31 0 00.27.15.28.28 0 00.15 0 .3.3 0 00.11-.42A15.92 15.92 0 00179.46 78.19z"></path><path fill="#0f1c2f" d="M180.65 72a.31.31 0 10-.27.55c2.88 1.43 5.54 5.17 5.56 5.21a.35.35 0 00.26.13.27.27 0 00.17-.06.31.31 0 00.08-.43C186.34 77.25 183.67 73.51 180.65 72zM179.4 74.44c-2.29-.81-6 2.37-6.14 2.5a.31.31 0 000 .44.3.3 0 00.43 0c1-.86 3.92-3 5.54-2.39 2.05.72 4.78 3.73 4.81 3.76a.33.33 0 00.23.1.3.3 0 00.2-.08.31.31 0 000-.44C184.35 78.24 181.6 75.21 179.4 74.44z"></path><path fill="#fff" d="M70.94,180.79c-1.54-2.86-12.84-23.76-19.61-35a60.67,60.67,0,0,0-6.66-9.39c-2.05-2.42-3.83-4.51-8.05-12.56-6.92-13.19-15-27.27-16.34-29.57L20.11,94c-.56-.94-1.15-1.92-1.79-2.91a17.5,17.5,0,0,0-5.08-5c-2.05-1.46-3.29-2.34-2.7-5.14.42-2,.65-3.8.84-5.26.28-2.13.5-3.81,1-4s1-.44,1.49-.72A18.69,18.69,0,0,1,17,69.52a3.69,3.69,0,0,1,1.08-.18,4.2,4.2,0,0,1,1.56.37,7.33,7.33,0,0,0,1.49.44,2,2,0,0,1,1.61,1.06.45.45,0,0,1-.07.49,3.6,3.6,0,0,1-2.11.47H19l1.43.63s2.36,1,3.65,1.7a5.89,5.89,0,0,1,2.1,1.82c.07.16.28,1,.41,1.47,1.2,1.81,2.7,4.81,1.84,5.58a.74.74,0,0,1-.49.22c-.81,0-1.65-1.66-1.89-2.25l-.09-.24-.28,0a2.25,2.25,0,0,1-1.52-.83l-.34-.43-.22.5c-1.21,2.88.72,5.15,5.24,8.86a3.62,3.62,0,0,1,.77.87l.14.25.05,0c1.33,1.77,11,14.66,20.8,25.8,5.69,6.47,7.15,9.58,8.69,12.88A46.79,46.79,0,0,0,66,139.87c8.1,10.2,21.35,25.9,23.27,28.18Z"></path><path d="M18.1,69.67a4,4,0,0,1,1.45.35,6.68,6.68,0,0,0,1.55.45,1.7,1.7,0,0,1,1.35.84s0,.13,0,.17a3.69,3.69,0,0,1-1.92.35h0l-3.39-.06,3.12,1.33s2.35,1,3.63,1.69a5.51,5.51,0,0,1,1.95,1.68c.06.14.25.84.39,1.4l0,.11.06.1c1.33,2,2.4,4.55,1.85,5a.5.5,0,0,1-.27.14c-.45,0-1.19-1.07-1.58-2l-.2-.48-.51.08h-.07a2,2,0,0,1-1.16-.72l-.69-.85-.43,1c-1.3,3.06.68,5.42,5.32,9.24a2.8,2.8,0,0,1,.7.78l.32.48,0,0c1.81,2.41,11.17,14.83,20.66,25.61,5.66,6.44,7.11,9.54,8.64,12.81a47.22,47.22,0,0,0,6.79,10.92c7.83,9.85,20.47,24.85,23.05,27.91L71.06,180.31c-2.08-3.85-12.88-23.8-19.45-34.65a60.84,60.84,0,0,0-6.69-9.43c-2-2.41-3.8-4.48-8-12.5C30.26,111,22.53,97.54,20.75,94.47h0l-.39-.65c-.64-1.09-1.23-2-1.8-2.92a17.71,17.71,0,0,0-5.16-5.09c-2-1.43-3.11-2.21-2.57-4.8.42-2,.66-3.82.85-5.29s.47-3.61.85-3.77,1-.46,1.52-.74a18.34,18.34,0,0,1,3-1.36,3.06,3.06,0,0,1,1-.17Zm0-.66a4,4,0,0,0-1.18.2,43.47,43.47,0,0,0-4.61,2.12c-1.18.48-1,4.32-2.09,9.54s3.95,4.4,7.82,10.38c.64,1,1.23,2,1.78,2.9h0S28.72,109.53,36.33,124s7.39,9.85,14.72,22,19.78,35.28,19.78,35.28l18.93-13.17s-14.7-17.36-23.5-28.44S61.42,128,50.81,115.92s-20.94-26-20.94-26h0A3.49,3.49,0,0,0,29,89c-4.55-3.75-6.25-5.85-5.13-8.48a2.63,2.63,0,0,0,1.67,1h.17s1,2.45,2.19,2.45a1,1,0,0,0,.7-.3c1.41-1.25-1.73-5.91-1.73-5.91a15.64,15.64,0,0,0-.44-1.53,6.06,6.06,0,0,0-2.23-2c-1.32-.7-3.69-1.71-3.69-1.71h.07c.33,0,1.86,0,2.35-.56s-.11-1.84-1.73-2.11c-1.24-.2-2-.81-3.1-.81Z"></path><path fill="#0f1c2f" d="M14.53 74l-.06-.28.28-.08a8.33 8.33 0 003-1.89l.12-.11.16 0s1.93.45 2.73.58a.32.32 0 01.26.36.31.31 0 01-.36.25c-.69-.12-2.14-.44-2.62-.55a9.46 9.46 0 01-2.88 1.82 3.6 3.6 0 01-.27 2.37.31.31 0 01-.27.15.3.3 0 01-.15 0 .31.31 0 01-.11-.42A3.19 3.19 0 0014.53 74zM20.54 78.19c.82-.85 2.54-2.16 3.56-2.07A9.9 9.9 0 0127 77.45a.3.3 0 01.1.42.31.31 0 01-.43.1 9.56 9.56 0 00-2.65-1.24c-.67-.07-2.14.93-3.06 1.89a15.44 15.44 0 00-1.9 2.56.31.31 0 01-.27.15.28.28 0 01-.15 0 .31.31 0 01-.12-.42A16.91 16.91 0 0120.54 78.19z"></path><path fill="#0f1c2f" d="M19.35 72a.31.31 0 01.41.14.3.3 0 01-.14.41c-2.88 1.43-5.54 5.17-5.56 5.21a.33.33 0 01-.26.13.27.27 0 01-.17-.06.31.31 0 01-.08-.43C13.66 77.25 16.33 73.51 19.35 72zM20.6 74.44c2.29-.81 6 2.37 6.14 2.5a.31.31 0 010 .44.3.3 0 01-.43 0c-1-.86-3.92-3-5.54-2.39-2.05.72-4.78 3.73-4.81 3.76a.33.33 0 01-.23.1.32.32 0 01-.23-.52C15.65 78.24 18.4 75.21 20.6 74.44z"></path><path fill="#16162b" d="M127.09,132.8c-1.69-15-12.06-17.15-18.4-21-5.16-3.16-14.7-5.65-23,6C81.22,124,73,127.8,73,133.8s-15.17,2.86-15.17,2.86c9.84,16,27.65,24.14,40.38,24.14s3.37,3,19.19,3,22.43-28.89,22.43-28.89C131.85,140.5,128.13,141.93,127.09,132.8Z"></path><path fill="#16162b" d="M139.6 134.52c-3.77 2.66-6.68 4.43-8.61 4.43-1.29 0-2.85-.71-3.48-6.2-1.41-12.52-8.9-16.32-14.92-19.36-1.31-.67-2.56-1.3-3.68-2a17.57 17.57 0 00-9-2.7c-5.48 0-10.36 3-14.53 8.79a40.47 40.47 0 01-5.94 6.2c-3.5 3.18-6.81 6.18-6.81 10.1a2.68 2.68 0 01-2 2.55 13.55 13.55 0 01-4.89.7 44.39 44.39 0 01-7.76-.81.44.44 0 00-.44.17.44.44 0 000 .47c9.83 16 27.94 24.34 40.74 24.34 5.9 0 6.93.64 8 1.3 1.33.82 2.71 1.67 11.17 1.67 16 0 22.57-28 22.84-29.23a.42.42 0 00-.18-.45A.44.44 0 00139.6 134.52zm-22.18 28.82c-8.22 0-9.5-.78-10.73-1.54s-2.32-1.42-8.46-1.42c-12.35 0-29.74-7.94-39.51-23.13a44.66 44.66 0 007 .65 14.39 14.39 0 005.21-.77 3.49 3.49 0 002.53-3.33c0-3.55 3.17-6.43 6.53-9.47A41.35 41.35 0 0086 118c4-5.6 8.65-8.44 13.84-8.44a16.69 16.69 0 018.6 2.58c1.15.7 2.41 1.34 3.74 2 6.14 3.1 13.1 6.63 14.46 18.7.55 4.8 1.88 6.94 4.32 6.94 2 0 4.63-1.48 8.17-3.92C137.75 141.1 131 163.34 117.42 163.34zM50 124.92a.42.42 0 00-.35.49s.59 3.62-.43 5.65a.43.43 0 00.19.57.45.45 0 00.19.05.43.43 0 00.38-.24c1.14-2.27.53-6 .5-6.17A.41.41 0 0050 124.92z"></path><path fill="#fff" d="M100.49,112.87c-11.14,0-17.5,9.62-17.5,21.49s9.12,18.15,17.5,18.15S118,146.23,118,134.36,111.63,112.87,100.49,112.87Z"></path><path fill="#16162b" d="M100.49,112.45c-10.72,0-17.93,8.8-17.93,21.91,0,12.07,9.24,18.58,17.93,18.58s17.94-6.51,17.94-18.58C118.43,121.25,111.22,112.45,100.49,112.45Zm0,39.64c-8.28,0-17.08-6.21-17.08-17.73,0-12.6,6.87-21.07,17.08-21.07s17.09,8.47,17.09,21.07C117.58,145.88,108.77,152.09,100.49,152.09Z"></path><path fill="#16162b" d="M111 143.21a11.3 11.3 0 01-5.11-1.07 15.32 15.32 0 00-5.36-1.27 13.83 13.83 0 00-5.07 1.28 10.87 10.87 0 01-4.63 1.13.41.41 0 00-.45.39.41.41 0 00.39.45h.39a12.53 12.53 0 004.61-1.19 13 13 0 014.76-1.22 14.61 14.61 0 015.07 1.22 11.91 11.91 0 005.49 1.11.42.42 0 10-.09-.84zM100.83 130.57A9.79 9.79 0 0095.7 132c0 3.74 2.15 6.77 4.79 6.77s4.79-3 4.79-6.77c0-.15 0-.3 0-.45A11.53 11.53 0 00100.83 130.57z"></path><path fill="#16162b" d="M105.69,131.53a.44.44,0,0,0-.24-.36,11.74,11.74,0,0,0-4.62-1c-2.23,0-5.55,1.12-5.55,1.86,0,4,2.34,7.19,5.21,7.19s5.22-3.22,5.22-7.19c0-.12,0-.24,0-.36Zm-5.2,6.81c-2.36,0-4.29-2.73-4.36-6.14a10.4,10.4,0,0,1,4.7-1.21,11.26,11.26,0,0,1,4,.84V132C104.86,135.5,102.9,138.34,100.49,138.34Z"></path><path fill="#fff" d="M100.83,130.57A9.79,9.79,0,0,0,95.7,132a9.46,9.46,0,0,0,.08,1.21c1.39-.8,3.08-.58,5.08-.58,1.68,0,3.14-.36,4.38.22a7.94,7.94,0,0,0,0-.85c0-.15,0-.3,0-.45A11.53,11.53,0,0,0,100.83,130.57Z"></path><path fill="#16162b" d="M105.45,131.17a11.74,11.74,0,0,0-4.62-1c-2.23,0-5.55,1.12-5.55,1.86a11.07,11.07,0,0,0,.08,1.26.43.43,0,0,0,.23.33.45.45,0,0,0,.19,0,.37.37,0,0,0,.21-.06A7.37,7.37,0,0,1,99.8,133c.81,0,1.69,0,2.49,0,.4,0,.79-.05,1.17-.05a3.71,3.71,0,0,1,1.61.29.43.43,0,0,0,.6-.35c0-.29,0-.58,0-.88,0-.12,0-.25,0-.47A.44.44,0,0,0,105.45,131.17Zm-.59,1.09a8.46,8.46,0,0,0-2.63-.11c-.77,0-1.63.06-2.41,0a9.64,9.64,0,0,0-3.68.38c0-.12,0-.25,0-.37a10.4,10.4,0,0,1,4.7-1.21,11.26,11.26,0,0,1,4,.84v.43Z"></path><path fill="#749b8a" d="M70.66,189.64v-.32a18.57,18.57,0,0,0-.22-2.49,53.5,53.5,0,0,1-.42-9.17c0-6.23,3-30.7,3.07-30.94l.08-.64.47.44c2,1.84,3.73,3.52,5.32,5,5.78,5.55,9.27,8.9,13.35,10.14,1.89.57,6.24,1.69,8.11,2.17,1.5-.38,6.09-1.56,8.12-2.17,4.06-1.24,7.54-4.57,13.3-10.1,1.59-1.54,3.36-3.23,5.35-5.08l.48-.44.07.64c0,.24,3,24.71,3.07,30.94a55,55,0,0,1-.4,9.18,16.74,16.74,0,0,0-.22,2.48v.32Z"></path><path d="M127.42,146.76s3,24.61,3.06,30.9c.05,9.52-.54,8.25-.62,11.65H71c-.08-3.4-.68-2.13-.64-11.65,0-6.29,3.07-30.9,3.07-30.9,9.16,8.52,13.5,13.65,18.79,15.26,1.69.51,5.4,1.47,8.21,2.19,2.81-.72,6.51-1.68,8.21-2.19,5.3-1.61,9.63-6.74,18.79-15.26Zm-54.5-1.37-.16,1.29c-.12,1-3,24.73-3.07,31a54.41,54.41,0,0,0,.42,9.23,17.87,17.87,0,0,1,.22,2.45V190H130.5l0-.64a18,18,0,0,1,.21-2.44,53.9,53.9,0,0,0,.41-9.24c0-6.24-2.94-30-3.07-31l-.16-1.29-.94.88c-2,1.86-3.78,3.58-5.36,5.09-5.72,5.49-9.18,8.81-13.17,10-2,.6-6.45,1.74-8,2.14-1.91-.49-6.15-1.58-8-2.14-4-1.22-7.47-4.55-13.22-10.07-1.57-1.5-3.34-3.2-5.33-5l-.94-.88Z"></path><path fill="#fff" d="M109.3,148.85H91.79s2.11,8-.66,12.66c0,0,5.29,3.09,9.29,3.16h.14c4-.07,9.3-3.16,9.3-3.16C107.08,156.89,109.3,148.85,109.3,148.85Z"></path><path fill="#16162b" d="M109.49,149.91a.42.42,0,1,0-.83-.17c-.48,2.27-1.36,7.84.62,11.61-1.25.68-5.46,2.84-8.72,2.89h-.13c-3.26-.05-7.47-2.21-8.72-2.89,1.87-3.54,1.29-8.6.76-11.37a.41.41,0,0,0-.5-.33.41.41,0,0,0-.33.49c.42,2.21,1.18,7.73-.88,11.15a.45.45,0,0,0,0,.32.39.39,0,0,0,.19.26c.23.13,5.43,3.15,9.51,3.22h.15c4.07-.07,9.28-3.09,9.5-3.22a.41.41,0,0,0,.15-.58C108.12,157.79,109,152.17,109.49,149.91Z"></path><path fill="#fff" d="M117.31,131.68l-1.15,8.19s0,3.15,2.86,1.76S122.06,129.77,117.31,131.68Z"></path><path fill="#16162b" d="M117.16,131.28a.42.42,0,0,0-.24.55.43.43,0,0,0,.55.24,1.84,1.84,0,0,1,2.64,1.17c1.1,2.51.35,7.22-1.28,8q-1.08.52-1.62.18a2,2,0,0,1-.62-1.55.43.43,0,0,0-.42-.43h0a.43.43,0,0,0-.42.42,2.87,2.87,0,0,0,1,2.27,1.74,1.74,0,0,0,1,.27,3.44,3.44,0,0,0,1.49-.4c2.23-1.07,2.9-6.34,1.68-9.11A2.67,2.67,0,0,0,117.16,131.28Z"></path><path fill="#fff" d="M81.93,141.63c2.89,1.39,2.85-1.76,2.85-1.76l-1.15-8.19C78.89,129.77,79,140.24,81.93,141.63Z"></path><path fill="#16162b" d="M84.78 139.45h0a.42.42 0 00-.42.43 2.05 2.05 0 01-.62 1.55c-.36.23-.91.17-1.62-.18-1.64-.79-2.39-5.5-1.28-8a1.83 1.83 0 012.63-1.17.44.44 0 00.56-.24.43.43 0 00-.24-.55 2.68 2.68 0 00-3.73 1.62c-1.22 2.77-.54 8 1.69 9.11a3.4 3.4 0 001.48.4 1.77 1.77 0 001-.27 2.9 2.9 0 001-2.27A.44.44 0 0084.78 139.45zM113.37 124a18.63 18.63 0 01-3.69-2.5c-.52-.41-1-.77-1.37-1a1.28 1.28 0 00-1.31-.24c-.66.31-.76 1.27-.78 1.37a.43.43 0 00.39.46.42.42 0 00.46-.38c0-.24.14-.62.29-.69a.66.66 0 01.46.17c.36.26.83.62 1.33 1a18.93 18.93 0 003.93 2.62l.14 0a.42.42 0 00.15-.82zM108 125a.42.42 0 00-.09.58.44.44 0 00.59.1c.23-.15.81-.17 1.52.75a.44.44 0 00.33.16.43.43 0 00.26-.09.42.42 0 00.08-.59C109.23 124.11 108 125 108 125zM94.87 120.19a1.3 1.3 0 00-1.32.24c-.37.26-.84.63-1.35 1a19 19 0 01-3.7 2.5.42.42 0 00.14.82.4.4 0 00.15 0 18.62 18.62 0 003.93-2.63c.5-.39 1-.75 1.32-1 .21-.14.38-.21.47-.17s.27.45.29.69a.42.42 0 10.84-.08C95.63 121.45 95.53 120.5 94.87 120.19zM91.22 125.94a.42.42 0 00.08.59.4.4 0 00.25.09.44.44 0 00.34-.16c.71-.91 1.29-.9 1.52-.75a.42.42 0 00.58-.09.43.43 0 00-.08-.59S92.64 124.11 91.22 125.94zM100.54 125.56a2.7 2.7 0 00-2.13 1.49.42.42 0 00.19.57.41.41 0 00.19 0 .43.43 0 00.38-.23s.53-1 1.37-1 1.26 1 1.27 1a.43.43 0 10.78-.34A2.51 2.51 0 00100.54 125.56z"></path><path fill="#16162b" d="M108.38 108.67c-9.16-3.37-18.79.61-24.52 8.73s1.37 17.68 1.37 17.68a11.55 11.55 0 011.62-7.32s-2.57-1.46-.43-6.67c0 0 0 4.15 2.25 5.6 0 0 .57-8.62 6.63-8.19 0 0-.51-3.16 4.11-3.84 0 0 1.35-4.14 3.74-.81s.5 4.05 3.12 5.87A5.25 5.25 0 01111.8 122a4.63 4.63 0 00-.34-4.87s4.13 3.73 2.68 7.57a12.81 12.81 0 013.44 8.62 14.42 14.42 0 002-9.34C119 118.06 117.7 112.11 108.38 108.67zM151.18 125.41a.42.42 0 00-.35-.49.43.43 0 00-.49.35c0 .16-.63 3.9.51 6.17a.42.42 0 00.38.24.45.45 0 00.19-.05.43.43 0 00.19-.57C150.59 129 151.17 125.44 151.18 125.41z"></path><rect width="152.28" height="1.52" x="25.14" y="188.68" fill="#16162b"></rect><path fill="#efc959" d="M98.14,43.16A17.19,17.19,0,1,0,117,58.47,17.2,17.2,0,0,0,98.14,43.16Z"></path><path d="M98.1,42.75a17.6,17.6,0,1,0,19.33,15.68A17.63,17.63,0,0,0,98.1,42.75Zm3.57,34.19a16.78,16.78,0,1,1,14.94-18.42A16.79,16.79,0,0,1,101.67,76.94Z"></path><path fill="#fff" d="M97.86,62.84l-5.18-4.2-2.76,3.41,6.88,5.58a2.18,2.18,0,0,0,1.61.48,2.21,2.21,0,0,0,1.48-.8l9.72-12-3.41-2.76Z"></path><path d="M98.44 68.4a2.54 2.54 0 01-1.82-.54l-7.1-5.77 3.12-3.85 5.18 4.19 8.33-10.28L110 55.28l-9.9 12.21A2.46 2.46 0 0198.44 68.4zM90.32 62L97 67.41a2 2 0 002.68-.28l9.54-11.77-3-2.4L97.9 63.24l-5.17-4.19zM127.84 10.69a10.58 10.58 0 1011.62 9.43A10.59 10.59 0 00127.84 10.69zM130 31.24a10.08 10.08 0 119-11.07A10.1 10.1 0 01130 31.24z"></path><path fill="#efc959" d="M127.69,22.77l-3.1-2.53-1.67,2.05,4.14,3.36a1.3,1.3,0,0,0,1,.28,1.32,1.32,0,0,0,.89-.48l5.84-7.2-2-1.66Z"></path><path d="M128.06 26.22a1.61 1.61 0 01-1.18-.35l-4.36-3.54 2-2.49 3.11 2.52 5-6.18 2.49 2-6 7.42A1.61 1.61 0 01128.06 26.22zm-4.73-4l3.91 3.17a1 1 0 001.45-.15l5.66-7-1.6-1.3-5 6.18-3.11-2.52zM66.35 88.14A10.58 10.58 0 1078 97.57 10.6 10.6 0 0066.35 88.14zm2.15 20.55a10.08 10.08 0 119-11.07A10.09 10.09 0 0168.5 108.69z"></path><path fill="#efc959" d="M66.21,100.21,63.1,97.69l-1.66,2,4.13,3.36a1.34,1.34,0,0,0,1.86-.2l5.84-7.2-2-1.66Z"></path><path d="M66.57 103.67a1.64 1.64 0 01-1.18-.35L61 99.78l2-2.49 3.11 2.52 5-6.18 2.5 2-6 7.42A1.59 1.59 0 0166.57 103.67zm-4.73-4l3.92 3.17a1.06 1.06 0 001.45-.15l5.66-7-1.6-1.3-5 6.18L63.14 98.1zM53.55 41.42a7.84 7.84 0 108.61 7A7.84 7.84 0 0053.55 41.42zm1.59 15.23a7.47 7.47 0 116.66-8.21A7.48 7.48 0 0155.14 56.65z"></path><path fill="#efc959" d="M53.45,50.37,51.14,48.5,49.91,50,53,52.5a1,1,0,0,0,.71.22,1,1,0,0,0,.66-.36L58.68,47l-1.52-1.23Z"></path><path d="M53.72 53a1.3 1.3 0 01-.93-.27l-3.28-2.67 1.59-2L53.41 50l3.71-4.57 2 1.59-4.51 5.56A1.23 1.23 0 0153.72 53zm-3.4-3l2.84 2.3a.71.71 0 001-.1l4.15-5.12-1.08-.87-3.71 4.58-2.3-1.87zM82.07 9.85A9 9 0 1092 17.91 9.07 9.07 0 0082.07 9.85zm1.84 17.58A8.63 8.63 0 1191.59 18 8.64 8.64 0 0183.91 27.43z"></path><path fill="#efc959" d="M82,20.18,79.29,18l-1.42,1.75,3.54,2.87A1.12,1.12,0,0,0,83,22.48l5-6.17-1.75-1.42Z"></path><path d="M82.26 23.17a1.45 1.45 0 01-1-.3l-3.76-3.05 1.79-2.2 2.66 2.15 4.29-5.28 2.2 1.78-5.18 6.39A1.43 1.43 0 0182.26 23.17zm-4-3.44l3.32 2.69a.87.87 0 001.18-.12l4.82-5.95L86.28 15.3 82 20.58l-2.66-2.16zM147.16 44a12.34 12.34 0 1013.55 11A12.34 12.34 0 00147.16 44zm2.5 24A11.76 11.76 0 11160.14 55 11.77 11.77 0 01149.66 68z"></path><path fill="#efc959" d="M147,58.07l-3.63-3-1.94,2.39,4.83,3.92a1.58,1.58,0,0,0,1.13.33,1.5,1.5,0,0,0,1-.56l6.82-8.4-2.39-1.94Z"></path><path d="M147.41 62.05a1.8 1.8 0 01-1.34-.4l-5-4.09 2.3-2.84L147 57.66l5.84-7.21 2.84 2.3-7 8.63A1.87 1.87 0 01147.41 62.05zm-5.58-4.58l4.6 3.73a1.29 1.29 0 001.76-.18l6.63-8.18-1.94-1.58L147 58.47l-3.62-2.94zM132.18 85.24a12.34 12.34 0 1013.55 11A12.35 12.35 0 00132.18 85.24zm2.5 24a11.76 11.76 0 1110.48-12.92A11.77 11.77 0 01134.68 109.21z"></path><path fill="#efc959" d="M132,99.32l-3.63-2.94-1.94,2.39,4.83,3.91a1.53,1.53,0,0,0,2.16-.22l6.82-8.41-2.4-1.93Z"></path><path d="M132.43 103.31a1.85 1.85 0 01-1.34-.4l-5-4.09 2.3-2.84L132 98.92l5.84-7.21 2.84 2.3-7 8.63A1.83 1.83 0 01132.43 103.31zm-5.58-4.58l4.6 3.73a1.29 1.29 0 001.76-.18l6.63-8.18-1.94-1.58-5.85 7.21-3.63-2.94zM111.32 44.72a.25.25 0 01-.2-.06.29.29 0 01-.06-.4l2.11-2.73a.29.29 0 01.41-.05.3.3 0 010 .4l-2.11 2.73A.29.29 0 01111.32 44.72zm4.22-5.46a.27.27 0 01-.21-.06.28.28 0 010-.4l2.11-2.73a.3.3 0 01.4 0 .28.28 0 010 .4l-2.11 2.73A.24.24 0 01115.54 39.26zm4.21-5.45a.36.36 0 01-.2-.06.28.28 0 010-.4l2.07-2.68a.29.29 0 01.4-.06.3.3 0 010 .41L120 33.7A.31.31 0 01119.75 33.81zM75.73 88.18a.32.32 0 01-.21-.06.29.29 0 010-.4L77.58 85a.29.29 0 01.45.35l-2.1 2.73A.37.37 0 0175.73 88.18zm4.21-5.46a.25.25 0 01-.2-.06.28.28 0 010-.4l2.11-2.73a.28.28 0 01.4 0 .29.29 0 010 .4l-2.11 2.73A.27.27 0 0179.94 82.72zm4.22-5.46A.27.27 0 0184 77.2a.29.29 0 010-.4L86 74.12a.3.3 0 01.41-.05.29.29 0 01.05.4l-2.07 2.68A.27.27 0 0184.16 77.26zM92.49 43.17a.29.29 0 01-.3-.19l-1.14-3.26a.29.29 0 01.55-.19l1.13 3.26a.27.27 0 01-.17.36zm-2.27-6.51a.3.3 0 01-.3-.19l-1.14-3.26a.29.29 0 01.55-.19l1.13 3.26a.29.29 0 01-.17.36zM88 30.14a.27.27 0 01-.3-.19L87 28a.28.28 0 01.18-.36.27.27 0 01.36.17l.69 2a.29.29 0 01-.18.37zM80 56.1h-.08l-3.39-.61a.28.28 0 01-.23-.33.28.28 0 01.33-.24l3.39.61a.29.29 0 010 .57zm-6.79-1.21h-.08l-3.39-.6a.28.28 0 01-.23-.33.28.28 0 01.33-.24l3.39.61a.3.3 0 01.24.33A.31.31 0 0173.16 54.89zm-6.79-1.21h-.08l-3.39-.6a.29.29 0 01-.23-.34A.28.28 0 0163 52.5l3.4.61a.28.28 0 01.23.33A.31.31 0 0166.37 53.68zM119.13 62.4a.29.29 0 01-.31-.24.27.27 0 01.23-.33l3.39-.61a.27.27 0 01.34.23.29.29 0 01-.24.33l-3.39.61zm6.79-1.22a.3.3 0 01-.32-.24.29.29 0 01.24-.33l3.39-.61a.27.27 0 01.33.23.29.29 0 01-.23.34l-3.39.6zM132.7 60a.3.3 0 01-.31-.24.29.29 0 01.23-.33l2-.35a.27.27 0 01.33.23.27.27 0 01-.23.33l-2 .36zM123.45 88.49a.3.3 0 01-.26-.11l-2.09-2.74a.29.29 0 01.46-.35L123.65 88a.28.28 0 01-.05.4A.24.24 0 01123.45 88.49zM119.27 83a.29.29 0 01-.26-.11l-2.09-2.74a.29.29 0 01.45-.35l2.09 2.74a.28.28 0 010 .4A.25.25 0 01119.27 83zm-4.19-5.48a.3.3 0 01-.26-.11l-2.09-2.74a.31.31 0 010-.41.3.3 0 01.41.06l2.09 2.74a.28.28 0 01-.06.4A.35.35 0 01115.08 77.53z"></path></svg>