<svg width="212" height="25" viewBox="0 0 212 25" fill="none" xmlns="http://www.w3.org/2000/svg">
<path d="M0.112 19V1.12H6.256C7.424 1.12 8.448 1.352 9.328 1.816C10.208 2.264 10.888 2.904 11.368 3.736C11.864 4.552 12.112 5.504 12.112 6.592C12.112 7.68 11.864 8.632 11.368 9.448C10.888 10.264 10.208 10.904 9.328 11.368C8.464 11.816 7.44 12.04 6.256 12.04H2.032V19H0.112ZM2.032 10.24H6.352C7.12 10.24 7.792 10.096 8.368 9.808C8.944 9.504 9.392 9.08 9.712 8.536C10.032 7.976 10.192 7.32 10.192 6.568C10.192 5.816 10.032 5.168 9.712 4.624C9.392 4.08 8.944 3.664 8.368 3.376C7.792 3.072 7.12 2.92 6.352 2.92H2.032V10.24ZM15.2699 19V0.831999H17.0699V19H15.2699ZM24.4743 19.288C23.6583 19.288 22.9303 19.136 22.2903 18.832C21.6503 18.512 21.1463 18.08 20.7783 17.536C20.4103 16.992 20.2263 16.368 20.2263 15.664C20.2263 14.992 20.3703 14.384 20.6583 13.84C20.9463 13.28 21.3943 12.808 22.0023 12.424C22.6103 12.04 23.3863 11.768 24.3303 11.608L29.3703 10.768V12.4L24.7623 13.168C23.8343 13.328 23.1623 13.624 22.7463 14.056C22.3463 14.488 22.1463 15 22.1463 15.592C22.1463 16.168 22.3703 16.656 22.8183 17.056C23.2823 17.456 23.8743 17.656 24.5943 17.656C25.4743 17.656 26.2423 17.472 26.8983 17.104C27.5543 16.72 28.0663 16.208 28.4343 15.568C28.8023 14.928 28.9863 14.216 28.9863 13.432V10.168C28.9863 9.4 28.7063 8.776 28.1463 8.296C27.5863 7.816 26.8583 7.576 25.9622 7.576C25.1783 7.576 24.4903 7.776 23.8983 8.176C23.3063 8.56 22.8663 9.064 22.5783 9.688L20.9463 8.8C21.1863 8.256 21.5623 7.76 22.0742 7.312C22.6023 6.864 23.2023 6.512 23.8743 6.256C24.5463 5.984 25.2423 5.848 25.9622 5.848C26.9063 5.848 27.7383 6.032 28.4583 6.4C29.1943 6.768 29.7623 7.28 30.1623 7.936C30.5783 8.576 30.7863 9.32 30.7863 10.168V19H28.9863V16.432L29.2503 16.696C29.0263 17.176 28.6743 17.616 28.1943 18.016C27.7303 18.4 27.1783 18.712 26.5383 18.952C25.9143 19.176 25.2263 19.288 24.4743 19.288ZM34.4886 19V6.136H36.2886V8.632L35.8806 8.536C36.2006 7.704 36.7206 7.048 37.4406 6.568C38.1766 6.088 39.0246 5.848 39.9846 5.848C40.8966 5.848 41.7126 6.056 42.4326 6.472C43.1686 6.888 43.7446 7.464 44.1606 8.2C44.5926 8.92 44.8086 9.736 44.8086 10.648V19H43.0086V11.344C43.0086 10.56 42.8646 9.896 42.5766 9.352C42.3046 8.808 41.9126 8.392 41.4006 8.104C40.9046 7.8 40.3286 7.648 39.6726 7.648C39.0166 7.648 38.4326 7.8 37.9206 8.104C37.4086 8.392 37.0086 8.816 36.7206 9.376C36.4326 9.92 36.2886 10.576 36.2886 11.344V19H34.4886ZM48.2464 19V6.136H50.0464V8.632L49.6384 8.536C49.9584 7.704 50.4784 7.048 51.1984 6.568C51.9344 6.088 52.7824 5.848 53.7424 5.848C54.6544 5.848 55.4704 6.056 56.1904 6.472C56.9264 6.888 57.5024 7.464 57.9184 8.2C58.3504 8.92 58.5664 9.736 58.5664 10.648V19H56.7664V11.344C56.7664 10.56 56.6224 9.896 56.3344 9.352C56.0624 8.808 55.6704 8.392 55.1584 8.104C54.6624 7.8 54.0864 7.648 53.4304 7.648C52.7744 7.648 52.1904 7.8 51.6784 8.104C51.1664 8.392 50.7664 8.816 50.4784 9.376C50.1904 9.92 50.0464 10.576 50.0464 11.344V19H48.2464ZM62.0043 19V6.136H63.8043V19H62.0043ZM62.0043 3.76V1.12H63.8043V3.76H62.0043ZM67.4886 19V6.136H69.2886V8.632L68.8806 8.536C69.2006 7.704 69.7206 7.048 70.4406 6.568C71.1766 6.088 72.0246 5.848 72.9846 5.848C73.8966 5.848 74.7126 6.056 75.4326 6.472C76.1686 6.888 76.7446 7.464 77.1606 8.2C77.5926 8.92 77.8086 9.736 77.8086 10.648V19H76.0086V11.344C76.0086 10.56 75.8646 9.896 75.5766 9.352C75.3046 8.808 74.9126 8.392 74.4006 8.104C73.9046 7.8 73.3286 7.648 72.6726 7.648C72.0166 7.648 71.4326 7.8 70.9206 8.104C70.4086 8.392 70.0086 8.816 69.7206 9.376C69.4326 9.92 69.2886 10.576 69.2886 11.344V19H67.4886ZM87.3424 24.28C86.4624 24.28 85.6464 24.144 84.8944 23.872C84.1584 23.6 83.5184 23.224 82.9744 22.744C82.4464 22.28 82.0384 21.736 81.7504 21.112L83.4064 20.224C83.6624 20.832 84.1184 21.36 84.7744 21.808C85.4304 22.256 86.2704 22.48 87.2944 22.48C88.0784 22.48 88.7984 22.328 89.4544 22.024C90.1104 21.72 90.6384 21.272 91.0384 20.68C91.4384 20.088 91.6384 19.36 91.6384 18.496V15.64L91.9264 15.904C91.4784 16.832 90.8144 17.552 89.9344 18.064C89.0544 18.56 88.0944 18.808 87.0544 18.808C85.8544 18.808 84.7744 18.52 83.8144 17.944C82.8544 17.368 82.0944 16.592 81.5344 15.616C80.9904 14.624 80.7184 13.528 80.7184 12.328C80.7184 11.112 80.9904 10.016 81.5344 9.04C82.0944 8.064 82.8464 7.288 83.7904 6.712C84.7504 6.136 85.8384 5.848 87.0544 5.848C88.0944 5.848 89.0384 6.088 89.8864 6.568C90.7504 7.048 91.4304 7.696 91.9264 8.512L91.6384 9.016V6.136H93.4384V18.496C93.4384 19.6 93.1744 20.584 92.6464 21.448C92.1344 22.328 91.4144 23.016 90.4864 23.512C89.5744 24.024 88.5264 24.28 87.3424 24.28ZM87.1504 17.008C87.9824 17.008 88.7344 16.8 89.4064 16.384C90.0784 15.952 90.6144 15.384 91.0144 14.68C91.4304 13.96 91.6384 13.176 91.6384 12.328C91.6384 11.48 91.4304 10.704 91.0144 10C90.6144 9.28 90.0784 8.712 89.4064 8.296C88.7344 7.864 87.9824 7.648 87.1504 7.648C86.3024 7.648 85.5344 7.864 84.8464 8.296C84.1584 8.712 83.6144 9.272 83.2144 9.976C82.8304 10.68 82.6384 11.464 82.6384 12.328C82.6384 13.176 82.8304 13.96 83.2144 14.68C83.6144 15.384 84.1504 15.952 84.8224 16.384C85.5104 16.8 86.2864 17.008 87.1504 17.008Z" fill="#51555B"/>
<path d="M101.215 19V1.12H107.719C108.919 1.12 109.975 1.344 110.887 1.792C111.815 2.224 112.535 2.864 113.047 3.712C113.559 4.544 113.815 5.544 113.815 6.712C113.815 7.864 113.551 8.856 113.023 9.688C112.511 10.52 111.799 11.16 110.887 11.608C109.975 12.056 108.919 12.28 107.719 12.28H104.047V19H101.215ZM104.047 9.76H107.791C108.431 9.76 108.991 9.632 109.471 9.376C109.951 9.12 110.327 8.768 110.599 8.32C110.871 7.856 111.007 7.312 111.007 6.688C111.007 6.064 110.871 5.528 110.599 5.08C110.327 4.616 109.951 4.264 109.471 4.024C108.991 3.768 108.431 3.64 107.791 3.64H104.047V9.76ZM122.262 19.288C121.014 19.288 119.87 18.992 118.83 18.4C117.806 17.808 116.99 17 116.382 15.976C115.774 14.952 115.47 13.792 115.47 12.496C115.47 11.184 115.774 10.024 116.382 9.016C116.99 7.992 117.806 7.192 118.83 6.616C119.854 6.024 120.998 5.728 122.262 5.728C123.542 5.728 124.686 6.024 125.694 6.616C126.718 7.192 127.526 7.992 128.118 9.016C128.726 10.024 129.03 11.184 129.03 12.496C129.03 13.808 128.726 14.976 128.118 16C127.51 17.024 126.694 17.832 125.67 18.424C124.646 19 123.51 19.288 122.262 19.288ZM122.262 16.768C123.03 16.768 123.71 16.584 124.302 16.216C124.894 15.848 125.358 15.344 125.694 14.704C126.046 14.048 126.222 13.312 126.222 12.496C126.222 11.68 126.046 10.952 125.694 10.312C125.358 9.672 124.894 9.168 124.302 8.8C123.71 8.432 123.03 8.248 122.262 8.248C121.51 8.248 120.83 8.432 120.222 8.8C119.63 9.168 119.158 9.672 118.806 10.312C118.47 10.952 118.302 11.68 118.302 12.496C118.302 13.312 118.47 14.048 118.806 14.704C119.158 15.344 119.63 15.848 120.222 16.216C120.83 16.584 121.51 16.768 122.262 16.768ZM131.678 19V0.831999H134.39V13L133.334 12.736L139.838 6.016H143.222L138.326 11.224L143.438 19H140.318L135.758 12.112L137.366 11.896L133.526 15.976L134.39 14.176V19H131.678ZM151.157 19.288C149.861 19.288 148.709 18.992 147.701 18.4C146.709 17.792 145.933 16.976 145.373 15.952C144.813 14.912 144.533 13.752 144.533 12.472C144.533 11.16 144.813 10 145.373 8.992C145.949 7.984 146.717 7.192 147.677 6.616C148.637 6.024 149.725 5.728 150.941 5.728C151.917 5.728 152.789 5.896 153.557 6.232C154.325 6.568 154.973 7.032 155.501 7.624C156.029 8.2 156.429 8.864 156.701 9.616C156.989 10.368 157.133 11.168 157.133 12.016C157.133 12.224 157.125 12.44 157.109 12.664C157.093 12.888 157.061 13.096 157.013 13.288H146.669V11.128H155.477L154.181 12.112C154.341 11.328 154.285 10.632 154.013 10.024C153.757 9.4 153.357 8.912 152.813 8.56C152.285 8.192 151.661 8.008 150.941 8.008C150.221 8.008 149.581 8.192 149.021 8.56C148.461 8.912 148.029 9.424 147.725 10.096C147.421 10.752 147.301 11.552 147.365 12.496C147.285 13.376 147.405 14.144 147.725 14.8C148.061 15.456 148.525 15.968 149.117 16.336C149.725 16.704 150.413 16.888 151.181 16.888C151.965 16.888 152.629 16.712 153.173 16.36C153.733 16.008 154.173 15.552 154.493 14.992L156.701 16.072C156.445 16.68 156.045 17.232 155.501 17.728C154.973 18.208 154.333 18.592 153.581 18.88C152.845 19.152 152.037 19.288 151.157 19.288ZM159.779 19V6.016H162.371V8.632L162.131 8.248C162.419 7.4 162.883 6.792 163.523 6.424C164.163 6.04 164.931 5.848 165.827 5.848H166.619V8.32H165.491C164.595 8.32 163.867 8.6 163.307 9.16C162.763 9.704 162.491 10.488 162.491 11.512V19H159.779ZM173.342 19V1.12H174.902V17.56H182.942V19H173.342ZM185.851 19V6.256H187.291V19H185.851ZM185.851 3.76V1.12H187.291V3.76H185.851ZM192.562 19V7.624H189.97V6.256H192.562V5.032C192.562 4.136 192.738 3.376 193.09 2.752C193.458 2.128 193.954 1.656 194.578 1.336C195.202 0.999999 195.89 0.831999 196.642 0.831999C196.818 0.831999 196.994 0.847999 197.17 0.879999C197.362 0.895999 197.522 0.92 197.65 0.951999V2.248C197.522 2.216 197.37 2.2 197.194 2.2C197.018 2.184 196.882 2.176 196.786 2.176C195.954 2.176 195.282 2.416 194.77 2.896C194.258 3.36 194.002 4.072 194.002 5.032V6.256H197.17V7.624H194.002V19H192.562ZM205.699 19.288C204.499 19.288 203.419 19 202.459 18.424C201.499 17.832 200.739 17.032 200.179 16.024C199.619 15 199.339 13.856 199.339 12.592C199.339 11.328 199.611 10.2 200.155 9.208C200.699 8.2 201.435 7.408 202.363 6.832C203.291 6.256 204.331 5.968 205.483 5.968C206.363 5.968 207.155 6.128 207.859 6.448C208.579 6.768 209.195 7.216 209.707 7.792C210.235 8.352 210.635 9 210.907 9.736C211.195 10.456 211.339 11.216 211.339 12.016C211.339 12.176 211.331 12.344 211.315 12.52C211.299 12.696 211.275 12.88 211.243 13.072H200.179V11.752H210.427L209.779 12.256C209.875 11.328 209.739 10.496 209.371 9.76C209.003 9.008 208.475 8.416 207.787 7.984C207.115 7.536 206.347 7.312 205.483 7.312C204.619 7.312 203.827 7.544 203.107 8.008C202.387 8.456 201.819 9.08 201.403 9.88C200.987 10.664 200.795 11.576 200.827 12.616C200.795 13.656 200.995 14.576 201.427 15.376C201.859 16.176 202.451 16.808 203.203 17.272C203.955 17.72 204.787 17.944 205.699 17.944C206.627 17.944 207.435 17.728 208.123 17.296C208.811 16.848 209.371 16.256 209.803 15.52L211.027 16.168C210.739 16.76 210.331 17.296 209.803 17.776C209.275 18.24 208.659 18.608 207.955 18.88C207.267 19.152 206.515 19.288 205.699 19.288Z" fill="#536DFE"/>
</svg>
