<svg width="217" height="25" viewBox="0 0 217 25" fill="none" xmlns="http://www.w3.org/2000/svg">
<path d="M0.728 19V1.12H7.4C8.616 1.12 9.688 1.344 10.616 1.792C11.56 2.224 12.296 2.864 12.824 3.712C13.352 4.544 13.616 5.56 13.616 6.76C13.616 7.944 13.344 8.96 12.8 9.808C12.272 10.64 11.544 11.28 10.616 11.728C9.688 12.176 8.616 12.4 7.4 12.4H3.992V19H0.728ZM3.992 9.52H7.448C8.04 9.52 8.552 9.408 8.984 9.184C9.416 8.944 9.752 8.616 9.992 8.2C10.232 7.784 10.352 7.304 10.352 6.76C10.352 6.2 10.232 5.72 9.992 5.32C9.752 4.904 9.416 4.584 8.984 4.36C8.552 4.12 8.04 4 7.448 4H3.992V9.52ZM16.0265 19V0.831999H19.1705V19H16.0265ZM26.0334 19.288C25.1214 19.288 24.3294 19.136 23.6574 18.832C22.9854 18.528 22.4654 18.096 22.0974 17.536C21.7294 16.96 21.5454 16.296 21.5454 15.544C21.5454 14.824 21.7054 14.184 22.0254 13.624C22.3454 13.048 22.8414 12.568 23.5134 12.184C24.1854 11.8 25.0334 11.528 26.0574 11.368L30.3294 10.672V13.072L26.6574 13.696C26.0334 13.808 25.5694 14.008 25.2654 14.296C24.9614 14.584 24.8094 14.96 24.8094 15.424C24.8094 15.872 24.9774 16.232 25.3134 16.504C25.6654 16.76 26.0974 16.888 26.6094 16.888C27.2654 16.888 27.8414 16.752 28.3374 16.48C28.8494 16.192 29.2414 15.8 29.5134 15.304C29.8014 14.808 29.9454 14.264 29.9454 13.672V10.312C29.9454 9.752 29.7214 9.288 29.2734 8.92C28.8414 8.536 28.2654 8.344 27.5454 8.344C26.8734 8.344 26.2734 8.528 25.7454 8.896C25.2334 9.248 24.8574 9.72 24.6174 10.312L22.0494 9.064C22.3054 8.376 22.7054 7.784 23.2494 7.288C23.8094 6.776 24.4654 6.376 25.2174 6.088C25.9694 5.8 26.7854 5.656 27.6654 5.656C28.7374 5.656 29.6814 5.856 30.4974 6.256C31.3134 6.64 31.9454 7.184 32.3934 7.888C32.8574 8.576 33.0894 9.384 33.0894 10.312V19H30.1134V16.768L30.7854 16.72C30.4494 17.28 30.0494 17.752 29.5854 18.136C29.1214 18.504 28.5934 18.792 28.0014 19C27.4094 19.192 26.7534 19.288 26.0334 19.288ZM35.9953 19V5.944H38.9473V8.512L38.7073 8.056C39.0113 7.272 39.5073 6.68 40.1953 6.28C40.8993 5.864 41.7153 5.656 42.6433 5.656C43.6033 5.656 44.4513 5.864 45.1873 6.28C45.9393 6.696 46.5233 7.28 46.9393 8.032C47.3553 8.768 47.5633 9.624 47.5633 10.6V19H44.4193V11.344C44.4193 10.768 44.3073 10.272 44.0833 9.856C43.8593 9.44 43.5473 9.12 43.1473 8.896C42.7633 8.656 42.3073 8.536 41.7793 8.536C41.2673 8.536 40.8113 8.656 40.4113 8.896C40.0113 9.12 39.6993 9.44 39.4753 9.856C39.2513 10.272 39.1393 10.768 39.1393 11.344V19H35.9953ZM50.2218 19V5.944H53.1738V8.512L52.9338 8.056C53.2378 7.272 53.7338 6.68 54.4218 6.28C55.1258 5.864 55.9418 5.656 56.8698 5.656C57.8298 5.656 58.6778 5.864 59.4138 6.28C60.1658 6.696 60.7498 7.28 61.1658 8.032C61.5818 8.768 61.7898 9.624 61.7898 10.6V19H58.6458V11.344C58.6458 10.768 58.5338 10.272 58.3098 9.856C58.0858 9.44 57.7738 9.12 57.3738 8.896C56.9898 8.656 56.5338 8.536 56.0058 8.536C55.4938 8.536 55.0378 8.656 54.6378 8.896C54.2378 9.12 53.9258 9.44 53.7018 9.856C53.4778 10.272 53.3658 10.768 53.3658 11.344V19H50.2218ZM64.4484 19V5.944H67.5924V19H64.4484ZM64.4484 4.48V1.12H67.5924V4.48H64.4484ZM70.4953 19V5.944H73.4473V8.512L73.2073 8.056C73.5113 7.272 74.0073 6.68 74.6953 6.28C75.3993 5.864 76.2153 5.656 77.1433 5.656C78.1033 5.656 78.9513 5.864 79.6873 6.28C80.4393 6.696 81.0233 7.28 81.4393 8.032C81.8553 8.768 82.0633 9.624 82.0633 10.6V19H78.9193V11.344C78.9193 10.768 78.8073 10.272 78.5833 9.856C78.3593 9.44 78.0473 9.12 77.6473 8.896C77.2633 8.656 76.8073 8.536 76.2793 8.536C75.7673 8.536 75.3113 8.656 74.9113 8.896C74.5113 9.12 74.1993 9.44 73.9753 9.856C73.7513 10.272 73.6393 10.768 73.6393 11.344V19H70.4953ZM91.0578 24.28C90.0818 24.28 89.1778 24.12 88.3458 23.8C87.5138 23.48 86.7938 23.032 86.1858 22.456C85.5938 21.896 85.1618 21.232 84.8898 20.464L87.8178 19.36C88.0098 19.968 88.3858 20.456 88.9458 20.824C89.5218 21.208 90.2258 21.4 91.0578 21.4C91.6978 21.4 92.2578 21.28 92.7378 21.04C93.2338 20.8 93.6178 20.448 93.8898 19.984C94.1618 19.536 94.2978 18.992 94.2978 18.352V15.376L94.8978 16.096C94.4498 16.88 93.8498 17.472 93.0978 17.872C92.3458 18.272 91.4898 18.472 90.5298 18.472C89.3138 18.472 88.2258 18.192 87.2658 17.632C86.3058 17.072 85.5538 16.304 85.0098 15.328C84.4658 14.352 84.1938 13.256 84.1938 12.04C84.1938 10.808 84.4658 9.712 85.0098 8.752C85.5538 7.792 86.2978 7.04 87.2418 6.496C88.1858 5.936 89.2578 5.656 90.4578 5.656C91.4338 5.656 92.2898 5.864 93.0258 6.28C93.7778 6.68 94.4018 7.264 94.8978 8.032L94.4658 8.824V5.944H97.4418V18.352C97.4418 19.488 97.1618 20.504 96.6018 21.4C96.0578 22.296 95.3058 23 94.3458 23.512C93.4018 24.024 92.3058 24.28 91.0578 24.28ZM90.9138 15.568C91.5858 15.568 92.1698 15.424 92.6658 15.136C93.1778 14.832 93.5778 14.416 93.8658 13.888C94.1538 13.36 94.2978 12.752 94.2978 12.064C94.2978 11.392 94.1458 10.792 93.8418 10.264C93.5538 9.72 93.1538 9.296 92.6418 8.992C92.1458 8.688 91.5698 8.536 90.9138 8.536C90.2578 8.536 89.6658 8.688 89.1378 8.992C88.6098 9.296 88.1938 9.72 87.8898 10.264C87.6018 10.792 87.4578 11.392 87.4578 12.064C87.4578 12.736 87.6018 13.336 87.8898 13.864C88.1938 14.392 88.6018 14.808 89.1138 15.112C89.6418 15.416 90.2418 15.568 90.9138 15.568Z" fill="white"/>
<path d="M104.72 19V1.12H111.392C112.608 1.12 113.68 1.344 114.608 1.792C115.552 2.224 116.288 2.864 116.816 3.712C117.344 4.544 117.608 5.56 117.608 6.76C117.608 7.944 117.336 8.96 116.792 9.808C116.264 10.64 115.536 11.28 114.608 11.728C113.68 12.176 112.608 12.4 111.392 12.4H107.984V19H104.72ZM107.984 9.52H111.44C112.032 9.52 112.544 9.408 112.976 9.184C113.408 8.944 113.744 8.616 113.984 8.2C114.224 7.784 114.344 7.304 114.344 6.76C114.344 6.2 114.224 5.72 113.984 5.32C113.744 4.904 113.408 4.584 112.976 4.36C112.544 4.12 112.032 4 111.44 4H107.984V9.52ZM125.934 19.288C124.654 19.288 123.486 18.992 122.43 18.4C121.39 17.808 120.558 17 119.934 15.976C119.326 14.952 119.022 13.784 119.022 12.472C119.022 11.16 119.326 9.992 119.934 8.968C120.558 7.944 121.39 7.136 122.43 6.544C123.47 5.952 124.638 5.656 125.934 5.656C127.214 5.656 128.374 5.952 129.414 6.544C130.454 7.136 131.278 7.944 131.886 8.968C132.51 9.976 132.822 11.144 132.822 12.472C132.822 13.784 132.51 14.952 131.886 15.976C131.262 17 130.43 17.808 129.39 18.4C128.35 18.992 127.198 19.288 125.934 19.288ZM125.934 16.408C126.638 16.408 127.254 16.24 127.782 15.904C128.326 15.568 128.75 15.104 129.054 14.512C129.374 13.904 129.534 13.224 129.534 12.472C129.534 11.704 129.374 11.032 129.054 10.456C128.75 9.864 128.326 9.4 127.782 9.064C127.254 8.712 126.638 8.536 125.934 8.536C125.214 8.536 124.582 8.712 124.038 9.064C123.494 9.4 123.062 9.864 122.742 10.456C122.438 11.032 122.286 11.704 122.286 12.472C122.286 13.224 122.438 13.904 122.742 14.512C123.062 15.104 123.494 15.568 124.038 15.904C124.582 16.24 125.214 16.408 125.934 16.408ZM135.206 19V0.831999H138.35V12.736L137.15 12.376L143.294 5.944H147.206L142.382 11.2L147.302 19H143.702L139.43 12.232L141.302 11.848L137.366 16.072L138.35 14.152V19H135.206ZM155.015 19.288C153.671 19.288 152.495 18.984 151.487 18.376C150.479 17.768 149.695 16.944 149.135 15.904C148.575 14.864 148.295 13.712 148.295 12.448C148.295 11.136 148.575 9.976 149.135 8.968C149.711 7.944 150.487 7.136 151.463 6.544C152.455 5.952 153.559 5.656 154.775 5.656C155.799 5.656 156.695 5.824 157.463 6.16C158.247 6.496 158.911 6.96 159.455 7.552C159.999 8.144 160.415 8.824 160.703 9.592C160.991 10.344 161.135 11.16 161.135 12.04C161.135 12.264 161.119 12.496 161.087 12.736C161.071 12.976 161.031 13.184 160.967 13.36H150.887V10.96H159.191L157.703 12.088C157.847 11.352 157.807 10.696 157.583 10.12C157.375 9.544 157.023 9.088 156.527 8.752C156.047 8.416 155.463 8.248 154.775 8.248C154.119 8.248 153.535 8.416 153.023 8.752C152.511 9.072 152.119 9.552 151.847 10.192C151.591 10.816 151.495 11.576 151.559 12.472C151.495 13.272 151.599 13.984 151.871 14.608C152.159 15.216 152.575 15.688 153.119 16.024C153.679 16.36 154.319 16.528 155.039 16.528C155.759 16.528 156.367 16.376 156.863 16.072C157.375 15.768 157.775 15.36 158.063 14.848L160.607 16.096C160.351 16.72 159.951 17.272 159.407 17.752C158.863 18.232 158.215 18.608 157.463 18.88C156.727 19.152 155.911 19.288 155.015 19.288ZM163.519 19V5.944H166.471V8.848L166.231 8.416C166.535 7.44 167.007 6.76 167.647 6.376C168.303 5.992 169.087 5.8 169.999 5.8H170.767V8.584H169.639C168.743 8.584 168.023 8.864 167.479 9.424C166.935 9.968 166.663 10.736 166.663 11.728V19H163.519ZM177.219 19V1.12H179.571V16.84H187.419V19H177.219ZM189.798 4V1.12H192.03V4H189.798ZM189.798 19V6.064H192.03V19H189.798ZM196.862 19V8.2H194.39V6.064H196.862V5.152C196.862 4.224 197.062 3.44 197.462 2.8C197.878 2.16 198.422 1.672 199.094 1.336C199.782 0.999999 200.542 0.831999 201.374 0.831999C201.55 0.831999 201.742 0.847999 201.95 0.879999C202.174 0.895999 202.358 0.92 202.502 0.951999V2.944C202.39 2.912 202.238 2.896 202.046 2.896C201.87 2.88 201.734 2.872 201.638 2.872C200.902 2.872 200.294 3.048 199.814 3.4C199.35 3.736 199.118 4.32 199.118 5.152V6.064H202.19V8.2H199.118V19H196.862ZM210.375 19.288C209.127 19.288 208.015 18.992 207.039 18.4C206.063 17.808 205.295 17 204.735 15.976C204.175 14.952 203.895 13.792 203.895 12.496C203.895 11.2 204.167 10.048 204.711 9.04C205.271 8.016 206.023 7.216 206.967 6.64C207.911 6.064 208.983 5.776 210.183 5.776C211.463 5.776 212.551 6.072 213.447 6.664C214.359 7.256 215.055 8.024 215.535 8.968C216.015 9.912 216.255 10.92 216.255 11.992C216.255 12.36 216.215 12.76 216.135 13.192H206.247C206.279 14.024 206.487 14.744 206.871 15.352C207.271 15.96 207.775 16.432 208.383 16.768C209.007 17.088 209.679 17.248 210.399 17.248C211.263 17.248 211.991 17.048 212.583 16.648C213.175 16.248 213.655 15.736 214.023 15.112L215.895 16.072C215.495 16.968 214.807 17.728 213.831 18.352C212.855 18.976 211.703 19.288 210.375 19.288ZM210.183 7.768C209.223 7.768 208.375 8.08 207.639 8.704C206.903 9.328 206.455 10.184 206.295 11.272H213.831C213.815 10.584 213.639 9.976 213.303 9.448C212.967 8.92 212.527 8.512 211.983 8.224C211.439 7.92 210.839 7.768 210.183 7.768Z" fill="#536DFE"/>
</svg>
