<svg xmlns="http://www.w3.org/2000/svg" viewBox="0 0 3000 3000" id="no-search-result"><rect width="63.63" height="631.82" x="2519.19" y="464.51" fill="#7a8593" transform="rotate(-36.42 2551.11 780.421)"></rect><path fill="#535a63" d="m2712.96,1058.51c-.25,0-.5-.02-.75-.06-1.31-.2-2.49-.91-3.28-1.98l-375.12-508.41c-.79-1.07-1.12-2.4-.92-3.71s.91-2.49,1.98-3.28l51.2-37.78c2.22-1.64,5.35-1.17,6.99,1.05l375.12,508.41c1.64,2.22,1.17,5.35-1.05,6.99l-51.2,37.78c-.86.64-1.91.98-2.97.98Zm-368.13-512.35l369.18,500.36,43.15-31.84-369.18-500.36-43.15,31.84Z"></path><circle cx="2246.7" cy="368" r="251.34" fill="#7a8593"></circle><path fill="#535a63" d="m2247.24,624.39c-12.87,0-25.82-.97-38.78-2.92-67.71-10.21-127.38-46.18-168.03-101.28-40.65-55.1-57.42-122.73-47.2-190.43,10.21-67.71,46.18-127.38,101.28-168.03,55.1-40.65,122.73-57.42,190.43-47.2,67.71,10.21,127.38,46.18,168.03,101.28,40.65,55.1,57.42,122.73,47.2,190.43-10.21,67.71-46.18,127.38-101.28,168.03-44.55,32.87-97.3,50.12-151.65,50.12Zm-1.06-502.79c-52.24,0-102.92,16.58-145.74,48.17-52.95,39.07-87.51,96.42-97.33,161.48-9.82,65.06,6.29,130.06,45.36,183,39.07,52.95,96.41,87.51,161.48,97.33,12.45,1.88,24.91,2.81,37.27,2.81,52.24,0,102.92-16.58,145.74-48.17,52.95-39.07,87.51-96.42,97.33-161.48,9.82-65.06-6.29-130.06-45.36-183-39.07-52.95-96.41-87.51-161.48-97.33-12.45-1.88-24.91-2.81-37.27-2.81Z"></path><path fill="#9ca9ba" d="m2430.53,368.9c.22-38.25-11.45-76.9-35.91-110.05-60.28-81.69-175.36-99.05-257.05-38.78-33.15,24.46-55.7,57.94-66.78,94.55l359.74,54.27Z"></path><path fill="#535a63" d="m2430.53,373.9c-.25,0-.5-.02-.75-.06l-359.74-54.27c-1.44-.22-2.71-1.05-3.48-2.27-.78-1.23-.98-2.73-.56-4.12,11.85-39.18,35.57-72.76,68.6-97.13,40.58-29.94,90.4-42.29,140.27-34.77,49.87,7.52,93.83,34.02,123.77,74.6,24.37,33.02,37.12,72.11,36.89,113.04,0,1.45-.65,2.83-1.75,3.77-.91.78-2.07,1.2-3.25,1.2Zm-353.19-63.34l348.14,52.52c-.95-36.65-12.95-71.54-34.88-101.26-28.36-38.44-69.99-63.53-117.22-70.65-47.23-7.12-94.41,4.57-132.84,32.93-29.71,21.92-51.47,51.73-63.2,86.46Z"></path><path fill="#9ca9ba" d="m2062.87,367.09c-.22,38.25,11.45,76.9,35.91,110.05,60.28,81.69,175.36,99.05,257.05,38.78,33.15-24.46,55.7-57.94,66.78-94.55l-359.74-54.27Z"></path><path fill="#535a63" d="m2247.1,556.86c-9.48,0-19.02-.71-28.57-2.15-49.87-7.52-93.83-34.02-123.77-74.6-24.37-33.02-37.12-72.11-36.89-113.04,0-1.45.65-2.83,1.75-3.77,1.1-.94,2.56-1.36,4-1.14l359.74,54.27c1.44.22,2.71,1.05,3.48,2.27.78,1.23.98,2.73.56,4.12-11.85,39.18-35.57,72.76-68.59,97.13-32.82,24.21-71.67,36.92-111.71,36.92Zm-179.17-183.95c.95,36.65,12.95,71.54,34.88,101.26,28.36,38.44,69.99,63.53,117.22,70.65,47.23,7.13,94.41-4.57,132.84-32.93,29.71-21.92,51.47-51.73,63.2-86.46l-348.14-52.52Z"></path><path fill="#9ca9ba" d="M2368.76 1658.37v-.36c-.02.06-.04.12-.05.18-.02-.06-.04-.12-.05-.18v.36c-4.71 17.09-15.6 29.31-32.67 36.66 17.07 7.35 27.96 19.57 32.67 36.66v.36c.02-.06.04-.12.05-.18.02.06.04.12.05.18v-.36c4.71-17.09 15.6-29.31 32.67-36.66-17.07-7.35-27.96-19.57-32.67-36.66zM468.21 768.31v-.36c-.02.06-.04.12-.05.18-.02-.06-.04-.12-.05-.18v.36c-4.71 17.09-15.6 29.31-32.67 36.66 17.07 7.35 27.96 19.57 32.67 36.66v.36c.02-.06.04-.12.05-.18.02.06.04.12.05.18v-.36c4.71-17.09 15.6-29.31 32.67-36.66-17.07-7.35-27.96-19.57-32.67-36.66zM2543.85 2259.7v-.36c-.02.06-.04.12-.05.18-.02-.06-.04-.12-.05-.18v.36c-4.71 17.09-15.6 29.31-32.67 36.66 17.07 7.35 27.96 19.57 32.67 36.66v.36c.02-.06.04-.12.05-.18.02.06.04.12.05.18v-.36c4.71-17.09 15.6-29.31 32.67-36.66-17.07-7.35-27.96-19.57-32.67-36.66zM2156.1 2032.77v-.73c-.03.13-.07.24-.1.37-.03-.13-.07-.24-.1-.37v.73c-9.42 34.17-31.2 58.62-65.34 73.32 34.14 14.7 55.91 39.15 65.34 73.32v.73c.03-.13.07-.24.1-.37.03.13.07.24.1.37v-.73c9.42-34.17 31.2-58.62 65.34-73.32-34.14-14.7-55.91-39.15-65.34-73.32zM699.09 1212.13v-.73c-.03.13-.07.24-.1.37-.03-.13-.07-.24-.1-.37v.73c-9.42 34.17-31.2 58.62-65.34 73.32 34.14 14.7 55.91 39.15 65.34 73.32v.73c.03-.13.07-.24.1-.37.03.13.07.24.1.37v-.73c9.42-34.17 31.2-58.62 65.34-73.32-34.14-14.7-55.91-39.15-65.34-73.32zM1008.82 386.14v-.73c-.03.13-.07.24-.1.37-.03-.13-.07-.24-.1-.37v.73c-9.42 34.17-31.2 58.62-65.34 73.32 34.14 14.7 55.91 39.15 65.34 73.32v.73c.03-.13.07-.24.1-.37.03.13.07.24.1.37v-.73c9.42-34.17 31.2-58.62 65.34-73.32-34.14-14.7-55.91-39.15-65.34-73.32z"></path><ellipse cx="1810.4" cy="864.07" fill="#fff" rx="270.2" ry="256.22"></ellipse><path fill="#535a63" d="m1810.4,1125.29c-73.46,0-142.53-27.14-194.5-76.42-52.04-49.35-80.7-114.98-80.7-184.81,0-69.83,28.66-135.46,80.7-184.81,51.96-49.28,121.05-76.42,194.5-76.42,0,0,0,0,0,0,73.46,0,142.54,27.14,194.5,76.42,52.04,49.35,80.7,114.98,80.7,184.81s-28.66,135.46-80.7,184.81c-51.97,49.28-121.04,76.42-194.5,76.42Zm-270.2-261.22h5c0,67.05,27.55,130.11,77.58,177.55,50.1,47.51,116.73,73.67,187.62,73.67s137.52-26.17,187.62-73.67c50.03-47.44,77.58-110.5,77.58-177.55s-27.55-130.11-77.58-177.55c-50.1-47.51-116.73-73.67-187.62-73.67s-137.52,26.16-187.62,73.67c-50.03,47.44-77.58,110.5-77.58,177.55h-5Z"></path><path fill="#7a8593" d="m2080.6,864.07c0,140.06-118.51,253.85-265.63,256.17-87.48-43.84-141.1-133.28-157.57-250.74-11.73-83.61,4.13-175.44,26.87-232.07,37.65-18.88,80.57-29.59,126.13-29.59,149.23,0,270.2,114.72,270.2,256.22Z"></path><path fill="#535a63" d="m1814.97,1125.24c-.78,0-1.54-.18-2.24-.53-43.91-22.01-80.06-55.52-107.42-99.59-26.69-42.99-44.48-95.11-52.86-154.92-5.5-39.22-5.33-83.31.5-127.5,5.16-39.08,14.63-77.12,26.68-107.12.45-1.13,1.31-2.06,2.4-2.61,39.29-19.71,83.68-30.12,128.37-30.12,73.46,0,142.54,27.14,194.5,76.42,52.04,49.34,80.7,114.98,80.7,184.81h0s0,0,0,0c0,69.05-28.12,134.16-79.18,183.34-50.93,49.05-118.89,76.69-191.37,77.83-.03,0-.05,0-.08,0Zm-126.76-484.18c-21.33,54.18-37.47,145-25.86,227.75,8.19,58.42,25.51,109.23,51.46,151.03,26.15,42.12,60.57,74.2,102.31,95.38,69.48-1.39,134.56-28,183.37-75.01,49.08-47.27,76.11-109.82,76.11-176.14s-27.55-130.11-77.58-177.55c-50.1-47.51-116.73-73.67-187.62-73.67-42.5,0-84.7,9.75-122.19,28.22Z"></path><path fill="#fff" d="m1717.29,880.72c-4.85-20.84-19.09-37.03-37.21-45.17l-2.24-9.63s-35.8,4.67-39.64,5.57c-35.44,8.24-57.48,43.65-49.24,79.09,8.24,35.44,43.32,55.89,79.09,49.24,9.84-1.83,39.64-5.57,39.64-5.57l-3.85-16.57c12.66-15.3,18.29-36.12,13.45-56.96Z"></path><path fill="#535a63" d="m1654.54,966.06c-13.82,0-27.28-3.69-38.96-10.82-16.05-9.8-27.24-25.26-31.49-43.54-8.86-38.06,14.91-76.24,52.97-85.09,3.97-.92,36.44-5.17,40.13-5.66,2.55-.33,4.93,1.32,5.52,3.83l1.69,7.27c19.19,9.43,32.89,26.62,37.76,47.53,4.86,20.91.16,42.38-12.9,59.32l3.3,14.21c.32,1.38.04,2.83-.77,3.99-.81,1.16-2.07,1.93-3.48,2.1-.3.04-29.77,3.74-39.35,5.52-4.81.9-9.64,1.34-14.43,1.34Zm19.46-134.6c-13.72,1.81-32.31,4.34-34.67,4.89-32.69,7.61-53.1,40.39-45.5,73.09,3.64,15.64,13.21,28.88,26.96,37.27,13.61,8.31,30.07,11.22,46.35,8.18,7.37-1.37,25.3-3.74,34.43-4.91l-2.6-11.17c-.35-1.52.02-3.12,1.02-4.32,12.24-14.79,16.77-33.98,12.43-52.64-4.34-18.66-16.87-33.88-34.39-41.75-1.42-.64-2.47-1.91-2.82-3.43l-1.21-5.22Z"></path><circle cx="1692.77" cy="890.08" r="65.88" fill="#fff"></circle><path fill="#535a63" d="m1692.64,960.98c-13.08,0-25.94-3.65-37.32-10.73-16.07-10-27.29-25.67-31.58-44.11-8.86-38.06,14.91-76.24,52.97-85.09,18.44-4.29,37.45-1.14,53.52,8.86,16.07,10,27.29,25.67,31.58,44.11,4.29,18.44,1.14,37.45-8.86,53.52-10.01,16.07-25.67,27.29-44.11,31.58-5.38,1.25-10.81,1.87-16.19,1.87Zm.25-131.8c-4.63,0-9.29.53-13.91,1.61-32.69,7.61-53.1,40.39-45.5,73.09,3.68,15.84,13.32,29.29,27.12,37.89,13.8,8.59,30.13,11.3,45.97,7.61,15.84-3.68,29.29-13.32,37.89-27.12,8.59-13.8,11.3-30.13,7.61-45.97-3.68-15.84-13.32-29.29-27.12-37.89-9.78-6.09-20.82-9.22-32.06-9.22Z"></path><g><path fill="#fff" d="m780.91,1888.4s112.86,13.76,198.2-35.79c85.33-49.55,156.9-176.17,209.21-220.22,52.3-44.04,123.87-96.34,148.65-134.88,24.77-38.54,33.03-93.59,33.03-93.59,0,0,148.65-74.32,267.01-68.82,118.37,5.51,247.74,93.59,247.74,93.59,0,0-46.8,187.18-60.56,275.27s-32.9,223.86-129.24,416.55c-96.34,192.69-458.01,366.61-458.01,366.61l-72.67-173.29s171.5-106.32,211.2-196.66c48.51-110.4,38.47-232.5,38.47-232.5,0,0-68.72,127.6-181.58,177.15s-451.44,73.68-451.44,73.68v-247.1Z"></path><path fill="#535a63" d="m1236.94,2492.12c-.6,0-1.2-.11-1.77-.33-1.28-.49-2.31-1.48-2.84-2.74l-72.67-173.29c-.95-2.27-.11-4.89,1.98-6.18,1.7-1.05,170.64-106.55,209.25-194.42,37-84.21,39.49-176.38,38.76-213.37-8.08,13-21.67,33.35-40.31,56.04-28.89,35.18-75.76,82.57-134.97,108.56-47.25,20.74-137.9,39.52-269.44,55.81-97.75,12.1-182.81,18.23-183.66,18.29-1.38.11-2.75-.38-3.76-1.33-1.02-.95-1.59-2.27-1.59-3.66v-247.1c0-1.43.61-2.79,1.69-3.74,1.07-.95,2.5-1.4,3.92-1.22,1.11.13,112.24,12.96,195.08-35.15,51.99-30.19,98.7-89.32,139.91-141.5,25.9-32.79,48.27-61.11,68.59-78.22,12.24-10.31,25.24-20.83,39-31.96,44.3-35.86,90.11-72.93,108.67-101.8,23.89-37.16,32.21-91.09,32.29-91.63.24-1.61,1.25-3,2.71-3.73.37-.19,38.05-18.93,89.73-36.73,47.82-16.47,117.82-35.5,179.75-32.61,61.99,2.88,126.77,28.43,170.2,49.35,46.93,22.61,79.8,44.88,80.13,45.1,1.73,1.18,2.54,3.31,2.04,5.35-.47,1.87-46.9,187.97-60.47,274.83l-1.22,7.81c-13.78,88.57-34.6,222.43-128.49,410.2-22.25,44.5-60.37,91.61-113.31,140.03-42.18,38.58-93.84,78.1-153.55,117.47-101.57,66.98-192.55,110.94-193.46,111.38-.68.33-1.42.49-2.17.49Zm-66.42-176.32l68.98,164.5c19.89-9.87,99.79-50.5,187.67-108.46,59.25-39.08,110.47-78.27,152.25-116.48,52-47.57,89.37-93.69,111.06-137.08,93.19-186.38,113.87-319.31,127.55-407.27l1.22-7.82c12.61-80.73,53.36-246.33,59.79-272.28-19.71-12.83-136.36-85.9-242.27-90.82-60.35-2.81-129.04,15.89-176.03,32.08-43.86,15.1-77.41,30.85-86.23,35.1-1.99,11.6-11.08,58.3-33.34,92.94-19.43,30.22-65.87,67.81-110.79,104.16-13.72,11.1-26.68,21.59-38.85,31.84-19.54,16.46-42.68,45.75-67.18,76.77-41.76,52.87-89.1,112.8-142.74,143.95-44.91,26.08-97.25,34.59-133.26,37.14-29.23,2.07-52.29.71-62.45-.16v236.2c43.68-3.35,341.37-27.62,444.43-72.87,57.4-25.2,103.06-71.42,131.26-105.75,30.63-37.29,47.76-68.88,47.93-69.19,1.05-1.95,3.26-2.98,5.42-2.52,2.17.45,3.78,2.28,3.96,4.49.1,1.26,2.5,31.44-1.04,75.66-3.27,40.83-12.49,101.6-37.83,159.26-16.79,38.22-57.83,83.34-121.96,134.12-39.58,31.34-76.2,55.24-87.57,62.5Z"></path></g><path fill="#535a63" d="m1413.93,1889.67c-.89,0-1.8-.24-2.62-.74-2.35-1.45-3.09-4.53-1.64-6.88,16.1-26.16,41.15-92.16,41.4-92.82.98-2.58,3.86-3.88,6.45-2.91,2.58.98,3.88,3.86,2.91,6.45-1.04,2.75-25.64,67.55-42.23,94.52-.94,1.54-2.58,2.38-4.26,2.38Z"></path><g><path fill="#fff" d="m1347.8,1432.19s109.19-56.61,237.08-63.22c165.23-8.54,295.56,101.15,311.36,96.41,15.81-4.74,33.19-105.9,33.19-105.9,0,0,241.82-42.67,295.56-83.77,53.74-41.09,251.3-330.33,251.3-330.33l-90.09-101.15s-121.7,118.54-184.92,156.47c-63.22,37.93-237.08,71.12-275.01,63.22-37.93-7.9-181.76-25.29-284.5-20.55-102.73,4.74-156.47,26.87-172.28,39.51-15.81,12.64-51.84,88.79-78.7,167.81-26.87,79.03-43,181.48-43,181.48Z"></path><path fill="#535a63" d="m1895.1,1470.54c-6.05,0-15.64-5.15-37.23-17.2-25.67-14.32-64.45-35.97-111.28-52.96-55.63-20.18-109.95-29.07-161.45-26.41-125.36,6.48-233.95,62.11-235.04,62.67-1.67.87-3.69.72-5.22-.38-1.53-1.1-2.31-2.97-2.02-4.83.16-1.03,16.5-103.79,43.2-182.32,27.26-80.18,63.29-156.49,80.31-170.11,10.3-8.24,30.47-16.86,55.35-23.64,33.49-9.13,73.8-14.84,119.82-16.96,100.81-4.66,245.98,12.36,285.75,20.65,17.59,3.66,69.38-2.27,125.95-14.42,63.53-13.65,117.91-31.66,145.47-48.2,62-37.2,182.79-154.59,184.01-155.77.98-.95,2.31-1.46,3.67-1.42,1.36.05,2.65.65,3.56,1.67l90.09,101.15c1.53,1.71,1.69,4.25.39,6.15-8.09,11.84-198.64,290.37-252.4,331.48-51.2,39.15-263.35,78.53-294.29,84.11-1.42,7.85-5.19,27.87-10.12,48.05-11.74,48.06-19.7,56.46-25.94,58.33-.8.24-1.65.36-2.58.36Zm-292.01-107.03c47.28,0,96.61,9.21,146.91,27.47,47.58,17.27,86.79,39.15,112.74,53.63,13.96,7.79,28.39,15.84,32.19,15.93,1.2-.65,8.08-6.27,19.13-51.67,6.13-25.19,10.41-49.97,10.45-50.22.36-2.08,1.98-3.71,4.06-4.08,2.41-.42,241.23-42.93,293.39-82.82,49.46-37.82,226.14-294.11,248-325.96l-84.02-94.34c-21.33,20.57-124.57,119.03-182.08,153.54-41.01,24.6-117.52,42.74-148.51,49.4-58.71,12.61-110.99,18.41-130.09,14.43-39.39-8.21-183.27-25.06-283.25-20.45-101.66,4.69-154.31,26.36-169.39,38.42-13.53,10.82-48.51,81.46-77.09,165.52-21.7,63.82-36.51,144-41.2,171.16,28.69-13.4,123.54-53.98,230.29-59.5,6.12-.32,12.28-.47,18.47-.47Z"></path></g><g><path fill="#becee2" d="m1315.69,1521.71c27.65,26.54,181.36,23.62,223.45-.17,42.09-23.79,135.41-381.53,135.41-399.36s-193.97-17.85-248.87-12.36-91.5,73.2-129.92,192.14c-38.43,118.94,3.96,204.43,19.93,219.76Z"></path><path fill="#535a63" d="m1418.34,1545.51c-24.16,0-86.98-1.83-106.11-20.2h0c-10.04-9.64-24.28-36.8-31.8-73.63-6.77-33.14-10.42-86.28,10.58-151.27,20.98-64.93,39.83-109.34,59.33-139.78,22.26-34.74,46.75-52.99,74.85-55.8,27.5-2.75,86.66-3.95,137.62-2.79,28.81.66,53.86,2.02,72.46,3.94,30.27,3.13,37.99,7.01,41.34,10.04,2.44,2.21,2.95,4.56,2.95,6.15,0,10.16-23.86,105.3-52.14,198.9-16.32,54.03-31.37,98.57-44.71,132.38-10.73,27.19-26.67,64.29-41.1,72.45-24.68,13.95-79.83,19.28-119.56,19.61-1.1,0-2.34.01-3.7.01Zm-99.19-27.41c11.44,10.99,51.8,17.81,102.81,17.4,49.96-.41,96.07-7.77,114.72-18.31,7.63-4.31,30.81-32.33,81.16-199.01,28.96-95.86,50.37-183.1,51.65-195.1-4.65-3.45-31.28-9.25-105.46-11.01-51.05-1.21-110.32-.04-137.85,2.71-24.86,2.49-46.92,19.25-67.43,51.25-19.03,29.69-37.53,73.37-58.24,137.45-20.33,62.93-16.82,114.23-10.29,146.2,7.52,36.83,21.73,61.51,28.93,68.42Z"></path></g><g><path fill="#becee2" d="m1674.55,1122.18c-36.67-17.4-64.53-1.77-96.43,32.71-31.89,34.47-94.3,232.17-95.69,289.02s27.79,80.03,56.7,77.64c44.03-3.65,75.42-136.67,103.15-214.32,27.73-77.65,48.98-177.11,32.26-185.04Z"></path><path fill="#535a63" d="m1535.11,1526.71c-13.17,0-25.55-4.91-35.25-14.06-10.75-10.14-23.36-30.32-22.42-68.87,1.4-57.52,64.31-256.94,97.02-292.29,18.03-19.49,33.38-31.27,48.28-37.07,17.43-6.78,35.08-5.72,53.96,3.24h0c6.63,3.14,14.18,14.01,3.31,71.82-6.72,35.73-19.06,80.37-33.01,119.42-5.7,15.95-11.51,34.13-17.67,53.38-25.32,79.19-51.51,161.07-89.78,164.24-1.49.12-2.97.18-4.44.18Zm110.6-406.66c-20.14,0-39.8,12.17-63.91,38.24-13.86,14.99-36.17,66.44-58.2,134.27-21,64.64-35.53,125.51-36.16,151.48-.85,34.87,10.02,52.61,19.29,61.35,8.69,8.2,20.06,12.18,32,11.18,13.44-1.11,27.86-18.27,42.87-51.01,13.93-30.37,26.27-68.98,38.21-106.31,6.18-19.33,12.02-37.59,17.78-53.7,13.78-38.59,25.97-82.67,32.6-117.91,10.41-55.37,2.32-60.9,2.23-60.94-9.25-4.39-18.02-6.65-26.7-6.65Z"></path></g><g><path fill="#becee2" d="m2335.98,872.88s36.33,31.55,58.31,57.36,60.22,69.78,60.22,69.78c0,0,43.02-38.24,52.58-43.02,9.56-4.78,43.97-18.16,80.3-44.93,36.33-26.77,71.7-91.77,71.7-108.98s-21.03-44.93-38.24-78.39c-17.21-33.46-65.28-82.46-73.88-88.2-8.6-5.74-77.37,89.81-77.37,89.81l-35.75-51.09s-36.69,45.66-47.2,73.38c-10.52,27.72-14.62,69.22-15.57,75.09-.96,5.87-35.09,49.18-35.09,49.18Z"></path><path fill="#535a63" d="m2454.52,1005.03c-.11,0-.21,0-.32-.01-1.33-.08-2.58-.7-3.45-1.71-.38-.44-38.51-44.29-60.26-69.82-21.49-25.23-57.42-56.51-57.79-56.82-2.02-1.75-2.3-4.77-.65-6.87,15.62-19.82,32.56-42.72,34.11-47.07.13-.84.33-2.42.58-4.38,1.65-12.94,6.04-47.29,15.22-71.5,10.67-28.14,46.46-72.85,47.98-74.74.99-1.23,2.49-1.93,4.06-1.87,1.57.05,3.03.84,3.93,2.13l31.73,45.35c6.22-8.5,18.63-25.28,31.46-41.54,10.7-13.57,19.6-24.15,26.48-31.47,9.92-10.56,16.72-15.96,22.14-12.35,9.3,6.2,57.7,55.36,75.55,90.07,5.53,10.76,11.37,20.75,17.01,30.42,12.17,20.84,21.78,37.29,21.78,50.26,0,20.52-37.9,86.6-73.73,113-30.44,22.43-59.92,35.76-74.09,42.17-3,1.35-5.36,2.42-6.94,3.21-6.58,3.29-34.4,27.09-51.49,42.28-.92.82-2.1,1.26-3.32,1.26Zm-111.69-132.78c9.75,8.65,37.09,33.41,55.27,54.75,17.96,21.08,47.11,54.69,56.88,65.94,11.18-9.85,41.4-36.17,49.88-40.4,1.75-.88,4.19-1.98,7.29-3.38,13.86-6.26,42.69-19.3,72.28-41.1,35.79-26.37,69.66-90.35,69.66-104.95,0-10.26-9.46-26.46-20.41-45.22-5.44-9.32-11.61-19.89-17.27-30.88-15.72-30.56-59.69-76.43-70.85-85.32-8.61,4.98-39.35,42.35-71.9,87.56-.95,1.32-2.48,2.04-4.09,2.08-1.62-.01-3.13-.81-4.06-2.13l-31.88-45.56c-9.8,12.7-34.25,45.52-42.3,66.75-8.76,23.1-13.04,56.61-14.65,69.22-.29,2.29-.5,3.95-.66,4.9-.3,1.83-.79,4.88-18.84,28.99-5.55,7.41-11.09,14.58-14.35,18.76Zm23.31-49.35s0,0,0,0c0,0,0,0,0,0Z"></path></g><g><path fill="#becee2" d="m1254.35,2216.03s-80.06,65.31-94.81,72.68c-14.75,7.37-40.09,14.99-72.46,28.77-26.21,11.16-37.3,25.25-37.3,25.25,0,0-6.31,208.88-8.03,270.86s-33.04,253.97-33.04,257.42,62.61,8.27,89.5-3.34c51.29-22.15,92.67-98.11,103.79-131.67,14.49-43.75,46.88-145.36,52.35-177.5s51.38-65.42,72.61-78.04c21.23-12.62,48.78-23.53,54.52-26.97,5.74-3.44,11.48-70.01-7.46-120.51-18.94-50.5-75.21-124.29-119.67-116.95Z"></path><path fill="#535a63" d="m1045.26,2880.04c-18.78,0-35.17-1.91-38.93-4.38-1.66-1.09-2.62-2.79-2.62-4.64,0-.98.36-3.47,3.53-24.25,8.42-55.2,28.15-184.45,29.51-233.31,1.7-61.27,7.97-268.78,8.03-270.87.03-1.07.41-2.1,1.07-2.94.49-.62,12.19-15.23,39.27-26.76,15.96-6.79,29.95-12,42.29-16.59,12.63-4.7,22.6-8.41,29.89-12.05,11.69-5.85,71.73-54.02,93.88-72.09.68-.55,1.48-.92,2.35-1.06,15.26-2.52,40.46,2.08,73.89,38.33,21.41,23.21,41.05,54.55,51.27,81.8,11.21,29.9,13.15,62.71,13.3,79.61.1,11.09-.48,21.8-1.65,30.17-1.74,12.47-4.06,15.43-6.3,16.78-2.23,1.34-6.81,3.42-13.14,6.29-11.05,5.01-27.75,12.58-41.39,20.7-5.3,3.15-23.94,14.7-41.35,31.05-16.73,15.71-26.71,30.76-28.89,43.53-5.44,31.95-36.74,130.56-52.53,178.23-10.74,32.42-52.48,111.34-106.56,134.69-13.19,5.69-35.37,7.77-54.94,7.77Zm-31.09-12.16c12.78,2.62,60.2,4.65,82.07-4.8,48.17-20.8,89.57-94.06,101.03-128.65,18.26-55.12,47.21-147.68,52.16-176.76,6.79-39.92,68.02-77.37,74.98-81.5,14.12-8.4,31.12-16.11,42.37-21.21,4.98-2.26,9.35-4.24,11.47-5.38,3.75-7.76,8.99-67.11-8.91-114.84-18.45-49.2-72.55-118.97-112.9-113.96-9.99,8.13-80.36,65.26-94.66,72.41-7.77,3.88-17.96,7.68-30.87,12.48-12.24,4.56-26.12,9.72-41.86,16.42-20.28,8.63-31.11,19.14-34.32,22.59-.62,20.58-6.36,210.84-7.98,269.05-1.37,49.47-21.17,179.16-29.62,234.54-1.28,8.39-2.38,15.56-2.97,19.61Z"></path></g><g><path fill="#becee2" d="m899.86,1856.16s24.52,42.13,34.88,103.54c10.36,61.41-11.1,180.53-21.46,187.19-10.36,6.66-156.86,17.76-165,21.46-8.14,3.7-42.91,51.05-80.65,113.94-37.73,62.89-84.35,91.01-112.46,95.45-28.12,4.44-94.71-12.58-94.71-12.58l125.99-517.67s39.38-13.58,81.18-9.87c31.34,2.78,102.1,17.76,133.92,22.2,31.82,4.44,98.3-3.65,98.3-3.65Z"></path><path fill="#535a63" d="m544.11,2383.47c-31.78,0-82.45-12.84-84.88-13.46-2.65-.68-4.27-3.37-3.62-6.03l125.99-517.67c.4-1.65,1.62-2.99,3.23-3.54,1.65-.57,40.87-13.88,83.25-10.13,18.84,1.67,50.74,7.51,81.59,13.16,20.45,3.74,39.77,7.28,52.58,9.07,30.81,4.3,96.35-3.59,97-3.67,1.98-.25,3.92.72,4.93,2.45,1.02,1.75,25.1,43.62,35.49,105.22,6.54,38.77.12,93.8-2.94,115.65-2.62,18.7-5.97,36.52-9.42,50.17-5.78,22.84-9.52,25.25-11.32,26.4-6.06,3.9-35.84,7.5-104.73,14.59-26.67,2.75-56.88,5.86-60.95,7.23-5.9,3.1-37,42.97-78.38,111.94-38.89,64.82-86.78,93.2-115.97,97.81-3.48.55-7.49.79-11.85.79Zm-77.6-21.98c15.64,3.73,65.37,14.87,87.89,11.31,40.53-6.4,83.92-51.36,108.96-93.08,31.73-52.89,71.41-110.71,82.87-115.92,3.78-1.72,20.56-3.57,64.01-8.05,37.14-3.83,93.08-9.59,100.22-13,3.45-3.91,11.05-30.64,16.67-71.75,6.06-44.37,7.04-84.63,2.68-110.46-8.57-50.84-27.22-88.65-32.72-99.02-14.11,1.6-67.89,7.2-96.22,3.25-13.03-1.82-32.45-5.37-53-9.14-29.2-5.34-62.29-11.4-80.67-13.03-34.23-3.03-67.27,5.99-76.54,8.81l-124.14,510.08Zm443.82-218.61h0,0Z"></path></g><g><path fill="#7a8593" d="m460.47,2365.16c29.44,6.35,80.54-62.01,115.64-161.73,32.81-93.24,57.76-257.57,50.35-297.78-7.41-40.21-13.33-52.81-40-58.15-26.67-5.34-48.89,13.71-67.94,53.92-19.05,40.21-74.43,183.78-86.61,284.02-8.89,73.15-8.56,171.72,28.56,179.73Z"></path><path fill="#535a63" d="m464.28,2370.56c-1.66,0-3.28-.17-4.86-.51-50.99-11-35.99-156.22-32.47-185.22,12.54-103.2,69.01-247.46,87.06-285.56,10.08-21.28,20.7-36.25,32.48-45.79,12.55-10.16,26.33-13.82,40.95-10.89,30.68,6.14,36.68,22.79,43.94,62.15,7.65,41.55-17.66,206.89-50.55,300.35-33.97,96.52-82.97,165.46-116.56,165.47Zm113.61-518.93c-20.33,0-38.33,17.08-54.84,51.93-20.52,43.32-74.45,186.12-86.17,282.48-5.04,41.49-6.12,82.74-2.96,113.17,3.83,36.88,13.38,57.99,27.61,61.06h0c.95.2,1.93.31,2.96.31,25.19,0,72.65-61.46,106.91-158.81,15-42.64,29.6-103.84,40.04-167.92,9.57-58.73,13.54-108.69,10.11-127.29-7.55-40.99-13.28-49.59-36.06-54.16-2.57-.51-5.1-.77-7.6-.77Z"></path></g><g><path fill="#7a8593" d="m1008.71,2871.01c41.52,5.06,78.29-56.27,98.56-136.57,20.27-80.3,21.83-221.4,9.36-293.13-12.47-71.72-47.93-97.38-66.84-98.58-18.91-1.21-57.89,35.75-71.15,112.62-9.46,54.84-27.29,208.93-22.61,288.45,4.68,79.52,20.38,123.28,52.68,127.21Z"></path><path fill="#535a63" d="m1013.47,2876.3c-1.79,0-3.57-.11-5.36-.33-17.71-2.16-31.41-15.07-40.73-38.37-8.54-21.36-13.89-51.95-16.33-93.51-4.55-77.39,12.34-229.67,22.67-289.59,7.64-44.3,22.9-72.14,34.35-87.7,13.98-18.98,29.69-29.85,42.04-29.06,12.6.8,27.33,10.02,39.38,24.66,15.34,18.63,26.43,45.62,32.07,78.06,12.53,72.06,11.16,213.62-9.43,295.21-10.58,41.92-25.12,77.16-42.03,101.89-17.41,25.46-36.88,38.74-56.62,38.74Zm35.39-528.6c-7.23,0-19.93,7.63-32.74,25.02-10.82,14.69-25.24,41.1-32.55,83.47-19.31,112-24.94,246.57-22.54,287.31,2.38,40.47,7.49,70.04,15.63,90.39,7.97,19.93,18.65,30.45,32.66,32.16,1.34.16,2.69.24,4.04.25,33.85,0,68.44-51.35,89.07-133.08,20.3-80.4,21.64-219.97,9.28-291.05-6.75-38.82-20.01-61.35-29.94-73.41-12.16-14.77-24.65-20.55-32.29-21.04-.2-.01-.4-.02-.61-.02Z"></path></g><path fill="#535a63" d="M2100.96 1323.36c-.13 0-.26 0-.4-.02-2.75-.21-4.81-2.62-4.59-5.37.22-2.78 5.87-68.6 52.45-108.01 43.72-36.99 85.26-44.61 112.4-44.46 29.61.15 48.7 9.12 49.49 9.5 2.49 1.19 3.55 4.18 2.35 6.67-1.19 2.49-4.18 3.55-6.67 2.35-.17-.08-18.23-8.48-45.75-8.52-25.37-.05-64.19 7.24-105.38 42.09-43.43 36.75-48.89 100.52-48.94 101.16-.21 2.62-2.4 4.61-4.98 4.61zM2534.49 734.92c-.95 0-1.91-.27-2.75-.83-2.3-1.52-2.93-4.63-1.41-6.93l42.35-63.99c1.52-2.3 4.63-2.93 6.93-1.41 2.3 1.52 2.93 4.63 1.41 6.93l-42.35 63.99c-.96 1.45-2.55 2.24-4.17 2.24zM2565.39 772.44c-.95 0-1.91-.27-2.75-.83-2.3-1.52-2.93-4.63-1.41-6.93l42.35-63.99c1.52-2.3 4.63-2.93 6.93-1.41 2.3 1.52 2.93 4.63 1.41 6.93l-42.35 63.99c-.96 1.45-2.55 2.24-4.17 2.24zM2603.57 809.97c-.95 0-1.92-.27-2.77-.84-2.3-1.53-2.92-4.64-1.38-6.93l35.08-52.58c1.53-2.3 4.64-2.92 6.93-1.38 2.3 1.53 2.92 4.64 1.38 6.93l-35.08 52.58c-.96 1.45-2.55 2.23-4.16 2.23z"></path></svg>